<svg version="1.0" xmlns="http://www.w3.org/2000/svg" viewBox="0 0 307.000000 319.000000" preserveAspectRatio="xMidYMid meet">
    <g transform="translate(0.000000,319.000000) scale(0.100000,-0.100000)" fill="currentColor" stroke="none">
        <path d="M2349 3153 c-20 -5 -14 -39 7 -47 10 -4 14 3 14 24 0 17 -1 29 -2 29 -2 -1 -10 -3 -19 -6z"/>
        <path d="M1364 3066 c-38 -24 -116 -69 -174 -100 -108 -59 -158 -95 -318 -228 -50 -42 -104 -85 -120 -94 -33 -21 -256 -257 -282 -299 -29 -48 -33 -72 -13 -72 19 0 30 8 68 47 40 40 36 18 -7 -38 -22 -30 -38 -56 -35 -59 8 -8 67 39 61 49 -3 4 0 8 7 8 7 0 22 8 33 18 20 17 20 17 3 -8 -38 -56 -40 -65 -7 -35 l33 30 -19 -30 c-10 -16 -82 -92 -159 -168 -77 -76 -126 -130 -110 -119 17 11 55 46 85 77 30 31 98 91 150 133 52 42 104 83 114 91 28 23 13 -2 -41 -65 -24 -28 -43 -56 -43 -61 0 -6 -7 -16 -15 -23 -26 -22 -19 -43 12 -36 16 4 37 8 47 10 13 2 33 30 61 82 104 200 247 344 436 440 143 71 240 96 405 101 157 6 234 -4 360 -44 78 -25 81 -25 107 -8 31 20 37 41 7 25 -11 -6 -20 -7 -20 -1 0 9 109 81 143 94 14 5 25 27 13 27 -2 0 -44 -20 -94 -45 -94 -47 -107 -52 -97 -35 8 13 -45 2 -59 -11 -6 -5 -15 -9 -20 -9 -6 1 2 11 18 24 23 19 27 29 22 50 -8 32 -32 34 -88 5 l-41 -21 -16 20 c-12 15 -26 20 -53 18 -22 -2 -38 2 -38 8 0 7 -4 6 -11 -1 -8 -8 -19 -8 -39 0 -28 11 -70 -2 -153 -45 -36 -18 -28 0 9 23 21 12 32 25 25 27 -9 3 -9 8 1 20 12 14 7 15 -41 9 -29 -4 -64 -13 -77 -22 -27 -18 -64 -21 -47 -4 6 6 17 11 24 12 24 4 42 19 31 26 -11 7 177 138 255 179 45 23 49 42 10 42 -22 1 -22 1 -2 16 19 14 17 15 -30 13 -61 -3 -75 -7 -75 -24 0 -7 -6 -15 -12 -18 -117 -47 -117 -47 -111 -30 4 11 3 14 -5 9 -7 -4 -12 -3 -12 1 0 5 9 14 20 21 22 14 27 42 7 42 -8 0 -45 -20 -83 -44z m356 -296 c0 -5 -4 -10 -10 -10 -5 0 -10 5 -10 10 0 6 5 10 10 10 6 0 10 -4 10 -10z m-30 -14 c0 -8 -4 -17 -9 -21 -12 -7 -24 12 -16 25 9 15 25 12 25 -4z"/>
        <path d="M2236 3055 c-3 -8 -1 -15 4 -15 6 0 10 7 10 15 0 8 -2 15 -4 15 -2 0 -6 -7 -10 -15z"/>
        <path d="M1450 3049 c0 -5 5 -7 10 -4 6 3 10 8 10 11 0 2 -4 4 -10 4 -5 0 -10 -5 -10 -11z"/>
        <path d="M1075 3030 c3 -5 11 -10 16 -10 6 0 7 5 4 10 -3 6 -11 10 -16 10 -6 0 -7 -4 -4 -10z"/>
        <path d="M890 2920 c0 -19 3 -21 12 -12 9 9 9 15 0 24 -9 9 -12 7 -12 -12z"/>
        <path d="M2175 2910 c-3 -5 -1 -10 4 -10 6 0 11 5 11 10 0 6 -2 10 -4 10 -3 0 -8 -4 -11 -10z"/>
        <path d="M2555 2824 c-53 -37 -101 -54 -151 -54 -43 0 -185 -72 -342 -174 -137 -88 -162 -102 -121 -65 21 18 22 20 4 15 -19 -6 -19 -5 -3 7 10 8 17 16 15 18 -1 2 3 -2 10 -9 7 -9 13 -10 18 -3 3 6 1 11 -5 11 -6 0 -8 4 -5 10 3 5 -7 12 -22 16 -15 4 -33 11 -40 16 -21 16 -142 46 -236 58 -307 39 -646 -108 -840 -362 -47 -62 -127 -202 -127 -223 0 -3 15 8 33 24 48 46 57 37 12 -11 -22 -23 -45 -47 -51 -53 -16 -14 -41 -96 -55 -180 -17 -103 -6 -270 26 -379 29 -99 89 -236 103 -236 5 0 18 11 28 25 10 13 25 27 34 30 8 3 -2 -11 -22 -31 l-37 -37 37 -54 c20 -29 40 -53 43 -53 3 0 26 16 51 35 25 19 48 31 52 28 3 -4 6 -1 6 6 0 13 57 65 74 67 6 1 16 2 21 3 6 1 3 6 -5 12 -13 9 -13 10 0 6 8 -2 24 3 35 12 20 16 20 16 2 -5 -26 -31 -20 -41 8 -14 14 13 23 30 21 37 -3 7 -2 12 2 12 4 -1 15 -1 26 0 16 1 17 3 5 17 -11 14 -10 18 6 30 16 12 21 12 34 -1 14 -13 10 -21 -34 -67 -92 -95 -97 -99 -111 -88 -8 8 -14 8 -19 -1 -4 -6 -2 -14 4 -18 6 -4 9 -16 6 -27 -6 -18 -6 -18 9 0 8 10 20 15 27 10 7 -4 10 -3 6 2 -7 13 -3 18 68 84 55 51 60 46 8 -9 -13 -13 -20 -27 -18 -32 3 -4 -11 -20 -32 -36 -59 -44 -71 -54 -157 -127 -45 -38 -107 -94 -139 -125 -31 -30 -57 -50 -57 -43 0 7 -5 12 -11 12 -6 0 -8 -7 -5 -16 7 -18 -19 -48 -34 -39 -6 3 -7 -1 -4 -10 5 -11 2 -14 -12 -8 -13 5 -16 3 -11 -10 3 -9 2 -19 -3 -22 -22 -14 -210 -259 -216 -281 -9 -37 -3 -36 40 2 21 19 42 34 47 34 5 0 15 12 23 28 16 31 97 116 132 139 13 8 24 22 24 30 0 8 5 11 10 8 6 -3 10 1 10 9 0 8 4 17 9 20 5 4 7 -3 4 -13 -3 -11 -38 -55 -78 -98 -40 -43 -71 -80 -69 -82 2 -3 41 32 87 77 107 107 148 135 72 49 -33 -37 -63 -67 -66 -67 -4 0 -9 -7 -13 -15 -8 -22 11 -18 31 5 10 11 22 20 28 20 5 0 17 13 26 29 10 17 25 28 35 28 10 -1 27 12 38 30 12 18 26 31 31 29 6 -2 22 9 36 24 14 15 36 34 47 42 34 23 124 108 115 108 -4 0 5 7 20 15 28 14 62 10 51 -7 -3 -5 -12 -4 -21 4 -13 11 -13 7 1 -25 8 -21 12 -36 8 -33 -4 2 -18 -10 -30 -28 -21 -31 -21 -34 -6 -64 14 -30 44 -44 44 -22 0 6 -5 10 -11 10 -8 0 -8 4 0 14 10 11 8 17 -6 25 -16 9 -10 18 52 76 38 36 73 65 77 65 5 0 8 6 8 13 0 14 79 91 81 79 1 -4 2 -18 2 -31 1 -13 8 -26 15 -28 15 -6 17 53 2 62 -6 4 -1 15 14 26 29 23 36 24 36 3 0 -10 6 -14 14 -11 18 7 28 -17 13 -32 -40 -40 55 11 105 56 10 9 18 12 17 7 0 -5 -25 -30 -55 -56 -57 -50 -64 -63 -15 -27 16 12 34 18 40 15 6 -4 9 -1 6 6 -4 11 26 38 99 87 12 8 -13 -19 -55 -60 -41 -41 -78 -83 -82 -92 -3 -9 -13 -17 -21 -17 -7 0 -17 -7 -20 -16 -3 -8 -11 -12 -17 -9 -12 8 -51 -30 -41 -40 4 -4 2 -6 -3 -5 -22 5 -29 -1 -15 -11 13 -9 13 -10 0 -6 -14 4 -85 -61 -77 -70 3 -2 13 -5 24 -7 11 -3 38 -9 59 -15 22 -6 50 -11 62 -11 23 0 165 92 191 124 7 8 18 13 26 10 8 -3 16 4 20 16 4 12 9 19 12 16 4 -3 13 0 22 6 9 7 -1 -6 -22 -29 -25 -26 -34 -42 -26 -45 8 -3 9 -9 4 -19 -14 -21 -16 -49 -5 -49 6 0 10 7 10 15 0 8 19 27 42 42 32 22 37 29 23 31 -9 2 -21 -2 -26 -9 -6 -10 -11 -11 -19 -3 -8 8 -2 15 22 27 30 15 34 15 42 0 5 -10 5 -23 -3 -35 -13 -21 -2 -24 19 -5 23 20 -9 -23 -42 -57 -16 -16 -27 -30 -25 -32 2 -2 38 5 80 15 170 44 325 131 442 247 92 93 184 231 169 256 -4 6 -3 8 3 5 17 -11 75 141 89 229 4 30 15 54 33 70 14 13 27 20 29 15 2 -5 -7 -55 -18 -112 -80 -393 -408 -710 -797 -769 -43 -7 -85 -15 -93 -18 -8 -3 -22 -4 -30 -3 -13 2 -13 0 -1 -8 11 -7 2 -22 -45 -72 -56 -59 -58 -71 -5 -25 39 34 14 1 -32 -43 -87 -81 -131 -116 -124 -98 4 11 3 16 -4 12 -5 -4 -7 -15 -4 -26 4 -10 2 -19 -2 -19 -5 0 -20 -14 -32 -31 -13 -18 -19 -29 -12 -25 6 4 11 1 11 -8 0 -8 -21 -29 -46 -46 -73 -51 -43 -46 37 6 74 47 303 226 432 336 49 42 75 58 97 58 17 0 32 -1 34 -2 2 -2 14 6 27 17 23 21 18 4 -9 -27 -13 -16 -13 -16 12 -5 14 7 26 15 26 20 0 4 5 7 12 7 7 0 23 12 35 27 13 14 25 24 28 21 3 -2 -28 -36 -68 -74 -41 -39 -72 -78 -72 -89 -1 -11 -6 -19 -12 -18 -6 1 -19 -7 -28 -17 -22 -25 -42 -26 -24 -2 13 16 0 8 -41 -27 -3 -2 4 -1 14 3 19 7 19 6 3 -12 -10 -11 -15 -26 -12 -34 4 -10 -8 -30 -32 -53 l-38 -37 60 41 c33 23 139 106 235 184 157 127 300 236 575 439 61 45 92 63 97 55 5 -8 8 -7 8 4 0 8 28 35 63 59 34 24 89 66 122 94 83 70 91 83 53 82 -13 -1 -22 4 -21 12 4 15 3 15 -40 -3 -32 -13 -36 -13 -51 4 -10 11 -26 17 -39 14 -21 -4 -21 -3 3 14 14 10 38 31 55 46 28 26 28 27 5 17 l-25 -11 25 20 c14 11 31 19 38 16 7 -3 10 -1 7 4 -3 5 5 17 17 27 20 14 20 15 3 9 -11 -4 -27 -8 -35 -9 -9 -1 -20 -5 -26 -9 -32 -19 -64 -26 -70 -14 -4 7 -4 9 1 5 4 -4 15 3 25 14 16 21 16 23 -1 41 -13 14 -25 18 -46 13 -17 -3 -5 6 30 25 40 21 57 35 53 45 -3 8 -1 14 5 14 6 0 8 4 5 9 -7 11 -61 0 -102 -22 -18 -9 -50 -21 -73 -26 -37 -8 -41 -7 -41 10 0 10 -4 19 -10 19 -18 0 1 25 38 50 20 13 62 45 92 71 30 25 65 54 78 65 29 24 28 31 -8 36 -16 3 -30 2 -30 -2 0 -8 -46 -7 -54 1 -4 3 1 12 11 20 15 13 16 12 9 -6 -5 -15 -4 -17 5 -8 14 14 2 36 -17 29 -8 -3 -14 0 -15 7 0 7 -5 2 -11 -11 -6 -13 -17 -21 -24 -18 -7 3 -19 -10 -28 -27 -10 -20 -16 -25 -16 -14 0 18 -44 25 -55 8 -10 -16 15 -23 33 -9 15 12 16 11 3 -5 -8 -10 -21 -15 -29 -12 -17 6 -44 -13 -36 -26 3 -5 -3 -6 -12 -2 -13 5 -15 3 -9 -7 5 -8 4 -11 -3 -6 -14 8 -62 -14 -62 -29 0 -6 -27 -16 -59 -21 -63 -10 -71 -5 -22 15 17 8 31 22 33 36 4 19 1 22 -19 20 -13 -1 -48 -19 -78 -39 -30 -20 -60 -36 -67 -36 -7 0 4 11 24 25 20 14 40 25 44 25 4 0 17 9 28 19 12 10 62 40 111 66 50 26 117 63 150 81 33 18 84 45 113 59 29 14 50 29 47 35 -7 11 -55 -8 -72 -30 -7 -8 -13 -10 -13 -5 0 6 -4 4 -8 -3 -5 -7 -17 -14 -28 -16 -10 -2 -23 -5 -29 -6 -22 -5 -26 1 -11 16 9 8 20 12 26 9 5 -3 10 1 10 10 0 9 6 15 13 13 22 -4 85 25 80 37 -2 7 6 16 19 20 21 7 32 9 65 14 7 0 29 17 50 37 l38 36 -35 -7 c-26 -5 -31 -3 -20 4 8 6 11 11 5 11 -5 0 -3 5 5 11 11 8 7 9 -20 6 -32 -5 -31 -4 17 18 50 23 76 45 53 45 -6 0 -9 4 -5 9 12 21 -19 21 -77 1 -34 -12 -112 -30 -172 -41 -61 -11 -136 -28 -166 -39 -30 -10 -74 -24 -98 -30 -24 -6 -50 -14 -58 -17 -8 -3 -14 -1 -14 5 0 6 12 15 28 21 15 6 34 15 42 21 8 5 51 26 95 45 85 38 200 97 250 127 41 24 14 23 -32 -2 -21 -11 -43 -20 -50 -20 -7 0 -13 -4 -13 -10 0 -5 -8 -10 -19 -10 -10 0 -24 -6 -30 -14 -7 -8 -26 -18 -42 -21 -16 -4 -29 -11 -29 -16 0 -5 -4 -8 -8 -7 -13 4 -122 -45 -122 -54 0 -4 -9 -8 -20 -8 -11 0 -20 -4 -20 -9 0 -4 -12 -6 -27 -4 -20 3 -24 2 -14 -5 8 -6 9 -12 3 -16 -6 -3 -13 -2 -17 3 -3 6 -12 8 -20 4 -8 -3 -15 -3 -15 1 0 5 106 56 175 84 22 8 56 25 75 38 20 12 50 25 68 29 19 4 35 12 38 19 2 6 14 13 26 13 12 1 31 13 42 27 20 23 56 46 72 46 4 0 -1 -7 -12 -16 -10 -8 4 -3 31 12 61 32 93 54 80 54 -6 0 4 12 20 26 29 26 29 26 5 19 -14 -4 -30 -10 -35 -14 -6 -3 -2 2 8 12 18 16 15 22 -8 18 -5 -1 1 9 15 22 14 13 28 23 32 20 4 -2 5 3 2 11 -4 10 -1 16 7 16 7 0 10 3 7 6 -4 3 -38 -8 -76 -25 -39 -17 -83 -31 -99 -31 -32 0 -79 -14 -217 -65 -69 -25 -102 -33 -110 -25 -5 5 -19 10 -30 10 -19 0 -18 3 9 26 18 15 23 23 12 20 -11 -4 -16 -2 -12 5 4 5 15 7 26 4 11 -4 19 -2 19 4 0 6 3 10 8 8 4 -1 8 3 9 8 1 6 -6 8 -15 7 -13 -3 -11 3 8 25 14 15 31 32 38 36 6 4 12 15 12 22 0 8 4 15 9 15 5 0 12 8 15 17 6 14 2 12 -17 -5 -36 -34 -41 -26 -10 13 15 19 33 35 39 35 7 0 14 7 18 15 5 13 2 13 -19 -1 -23 -15 -25 -15 -25 0 0 9 14 29 30 44 30 29 37 43 23 41 -5 0 -30 -16 -58 -35z m-55 -168 c0 -3 -4 -8 -10 -11 -5 -3 -10 -1 -10 4 0 6 5 11 10 11 6 0 10 -2 10 -4z m340 -140 c0 -2 -7 -7 -16 -10 -8 -3 -12 -2 -9 4 6 10 25 14 25 6z m-160 -76 c-8 -5 -19 -10 -25 -10 -5 0 -3 5 5 10 8 5 20 10 25 10 6 0 3 -5 -5 -10z m-80 -34 c0 -2 -7 -7 -16 -10 -8 -3 -12 -2 -9 4 6 10 25 14 25 6z m-100 -41 c0 -2 -10 -9 -22 -15 -22 -11 -22 -10 -4 4 21 17 26 19 26 11z m390 -165 c0 -5 -4 -10 -9 -10 -6 0 -13 5 -16 10 -3 6 1 10 9 10 9 0 16 -4 16 -10z m-35 -20 c-3 -5 -11 -10 -16 -10 -6 0 -7 5 -4 10 3 6 11 10 16 10 6 0 7 -4 4 -10z m-131 -41 c5 -4 -3 -6 -17 -6 -15 1 -27 5 -27 9 0 9 24 17 30 9 3 -3 9 -9 14 -12z m-2007 -136 c-11 -12 -16 -12 -22 -2 -6 8 -4 10 4 5 8 -5 14 0 18 15 4 14 8 18 11 10 2 -7 -2 -20 -11 -28z m1913 -3 c0 -5 -8 -10 -17 -10 -15 0 -16 2 -3 10 19 12 20 12 20 0z m-160 -94 c0 -2 -9 -6 -20 -9 -11 -3 -18 -1 -14 4 5 9 34 13 34 5z m290 0 c0 -2 -8 -10 -17 -17 -16 -13 -17 -12 -4 4 13 16 21 21 21 13z m-40 -60 c0 -2 -7 -7 -16 -10 -8 -3 -12 -2 -9 4 6 10 25 14 25 6z m-80 -21 c0 -2 -10 -9 -22 -15 -22 -11 -22 -10 -4 4 21 17 26 19 26 11z m-51 -38 c-2 -1 -13 -9 -24 -17 -19 -14 -19 -14 -6 3 7 9 18 17 24 17 6 0 8 -1 6 -3z m241 -191 c0 -18 -42 -29 -55 -14 -7 8 -6 9 3 4 6 -4 12 -3 12 3 0 5 8 12 18 14 9 3 18 5 20 6 1 0 2 -5 2 -13z m-65 -36 c-3 -5 -12 -10 -18 -10 -7 0 -6 4 3 10 19 12 23 12 15 0z m85 -64 c0 -3 -4 -8 -10 -11 -5 -3 -10 -1 -10 4 0 6 5 11 10 11 6 0 10 -2 10 -4z m-240 -66 c0 -5 -7 -10 -15 -10 -8 0 -15 5 -15 10 0 6 7 10 15 10 8 0 15 -4 15 -10z m-40 -15 c0 -8 -7 -15 -16 -15 -14 0 -14 3 -4 15 7 8 14 15 16 15 2 0 4 -7 4 -15z m105 -190 c-16 -14 -34 -25 -40 -25 -9 0 55 49 65 49 3 0 -8 -11 -25 -24z m-963 -27 c-7 -7 -12 -8 -12 -2 0 14 12 26 19 19 2 -3 -1 -11 -7 -17z m903 -18 c-3 -5 -11 -10 -16 -10 -6 0 -7 5 -4 10 3 6 11 10 16 10 6 0 7 -4 4 -10z m-221 -115 c-28 -22 -40 -18 -13 4 13 11 26 17 28 15 3 -2 -4 -11 -15 -19z m-1234 0 c-7 -8 -18 -15 -24 -15 -6 0 -2 7 8 15 25 19 32 19 16 0z m125 -14 c-3 -6 -11 -11 -17 -11 -6 0 -6 6 2 15 14 17 26 13 15 -4z m-89 -35 c-10 -15 -12 -27 -6 -31 6 -3 10 -2 10 4 0 6 9 15 20 21 27 15 25 8 -10 -29 -28 -29 -48 -41 -36 -22 3 4 -3 16 -14 26 -19 17 -19 18 13 36 42 23 42 23 23 -5z m384 -1 c-13 -14 -26 -23 -28 -20 -4 4 38 44 47 45 3 0 -6 -11 -19 -25z m-480 7 c0 -9 -96 -82 -107 -82 -5 1 3 10 16 21 18 15 21 23 13 31 -7 7 -12 16 -12 22 0 5 6 1 14 -10 14 -19 15 -19 43 3 32 25 33 26 33 15z m1205 -27 c-43 -35 -56 -30 -16 5 19 17 37 28 40 25 3 -3 -8 -17 -24 -30z m-790 -35 c-10 -11 -22 -20 -28 -20 -5 0 1 9 14 20 31 25 37 25 14 0z m685 -45 c-7 -9 -15 -13 -19 -10 -3 3 1 10 9 15 21 14 24 12 10 -5z m-1268 -37 c-7 -7 -12 -8 -12 -2 0 14 12 26 19 19 2 -3 -1 -11 -7 -17z m473 -8 c-10 -11 -21 -18 -23 -15 -3 3 3 12 14 20 27 20 30 18 9 -5z m738 -4 c-10 -13 -20 -22 -22 -20 -2 2 -10 -1 -18 -7 -8 -8 -13 -8 -13 -1 0 11 49 51 63 52 4 0 0 -11 -10 -24z m-1253 -19 c0 -2 -10 -12 -22 -23 l-23 -19 19 23 c18 21 26 27 26 19z"/>
        <path d="M2155 2830 c-3 -5 -1 -10 4 -10 6 0 11 5 11 10 0 6 -2 10 -4 10 -3 0 -8 -4 -11 -10z"/>
        <path d="M870 2765 c-11 -13 -10 -14 4 -9 9 3 16 10 16 15 0 13 -6 11 -20 -6z"/>
        <path d="M2871 2467 c-29 -22 -38 -33 -27 -35 15 -3 85 53 76 62 -3 2 -25 -10 -49 -27z"/>
        <path d="M2755 2430 c-3 -6 1 -7 9 -4 18 7 21 14 7 14 -6 0 -13 -4 -16 -10z"/>
        <path d="M2945 2240 c3 -5 11 -10 16 -10 6 0 7 5 4 10 -3 6 -11 10 -16 10 -6 0 -7 -4 -4 -10z"/>
        <path d="M2877 2115 c-42 -29 -46 -36 -18 -30 18 3 81 44 81 52 0 10 -31 -1 -63 -22z"/>
        <path d="M2825 2119 c-11 -16 -1 -19 13 -3 7 8 8 14 3 14 -5 0 -13 -5 -16 -11z"/>
        <path d="M607 2075 c-9 -7 -17 -18 -17 -24 0 -8 6 -6 17 5 12 11 18 13 21 5 5 -15 -28 -52 -39 -45 -5 3 -6 -2 -3 -10 4 -11 0 -16 -10 -16 -9 0 -19 -7 -23 -16 -3 -9 -28 -38 -54 -64 -27 -27 -49 -52 -49 -55 0 -3 11 -3 24 -1 29 5 66 40 66 61 0 8 5 15 11 15 15 0 59 42 59 58 0 6 4 12 9 12 5 0 13 18 19 39 11 44 -1 58 -31 36z"/>
        <path d="M540 2024 c0 -8 5 -12 10 -9 6 4 8 11 5 16 -9 14 -15 11 -15 -7z"/>
        <path d="M515 1980 c-3 -5 -2 -10 4 -10 5 0 13 5 16 10 3 6 2 10 -4 10 -5 0 -13 -4 -16 -10z"/>
        <path d="M590 1925 c-7 -14 -18 -25 -23 -25 -5 0 -3 -8 4 -17 13 -16 12 -17 -4 -4 -9 8 -19 12 -21 10 -6 -6 -50 -103 -50 -111 -1 -3 -4 -9 -8 -13 -3 -4 -5 5 -4 19 2 14 0 26 -5 26 -12 0 -20 -35 -13 -54 3 -9 1 -16 -6 -16 -6 0 -9 -4 -6 -8 8 -14 -62 -85 -78 -79 -8 3 -17 -1 -20 -9 -3 -8 -12 -14 -20 -14 -7 0 -16 -6 -19 -14 -4 -11 -1 -11 19 -2 13 6 24 14 24 19 0 4 5 7 10 7 6 0 -6 -20 -26 -44 -20 -24 -36 -46 -36 -49 1 -4 -12 -20 -29 -38 -16 -17 -29 -37 -29 -45 0 -8 -5 -14 -12 -14 -6 0 -22 -10 -35 -22 -19 -18 -23 -19 -17 -5 4 12 2 17 -7 15 -9 -2 -13 5 -12 19 l3 22 -35 -22 c-26 -17 -34 -28 -32 -47 1 -17 8 -25 19 -24 20 2 24 -12 6 -18 -8 -3 -8 -10 4 -26 8 -12 18 -19 21 -15 7 6 11 -28 8 -55 -2 -9 7 -8 36 4 21 9 54 19 73 22 19 2 40 9 47 14 7 5 13 5 17 0 3 -6 -1 -15 -9 -22 -19 -16 -19 -26 1 -34 9 -3 12 -2 9 4 -4 6 11 29 33 50 44 44 49 47 49 25 0 -8 -5 -15 -10 -15 -5 0 -7 -7 -4 -15 4 -8 2 -17 -4 -20 -5 -4 -9 -3 -8 2 4 22 -3 23 -20 2 -21 -26 -19 -41 4 -32 9 3 15 -1 15 -11 0 -9 7 -16 16 -16 8 0 12 5 9 10 -3 6 1 10 9 10 25 0 29 -21 7 -36 -12 -8 -21 -20 -21 -26 0 -7 6 -6 15 2 8 7 15 9 15 4 0 -4 5 -3 12 4 7 7 17 12 22 12 6 0 5 -5 -2 -12 -7 -7 -12 -20 -12 -30 0 -9 -8 -22 -17 -28 -16 -9 -15 -10 4 -5 18 5 22 3 17 -9 -3 -9 -10 -14 -14 -11 -5 3 -11 1 -15 -4 -3 -6 6 -8 21 -5 16 3 23 1 19 -6 -3 -5 -12 -10 -19 -10 -21 0 -90 -77 -74 -83 10 -4 10 -8 -2 -16 -12 -9 -11 -11 7 -11 12 0 24 6 26 13 4 9 6 9 6 0 1 -6 -4 -15 -9 -18 -8 -5 -8 -11 0 -20 16 -19 -26 -65 -59 -65 -21 0 -23 -2 -11 -10 8 -5 27 -10 42 -10 20 0 26 -4 22 -15 -4 -9 -11 -15 -18 -14 -23 3 -36 -1 -36 -11 0 -5 7 -10 15 -10 8 0 15 -4 15 -9 0 -18 32 -21 63 -6 18 8 57 35 87 60 30 25 63 45 73 45 10 0 16 4 12 9 -3 5 12 22 33 38 22 15 69 52 106 82 64 51 66 54 51 75 -169 229 -239 480 -206 740 6 49 9 91 8 93 -2 2 -10 -8 -17 -22z m-280 -449 c0 -2 -7 -9 -15 -16 -13 -11 -14 -10 -9 4 5 14 24 23 24 12z m-52 -56 c-13 -20 -28 -27 -28 -12 0 10 22 32 32 32 5 0 3 -9 -4 -20z m-88 3 c0 -5 -5 -15 -10 -23 -8 -12 -10 -11 -10 8 0 12 5 22 10 22 6 0 10 -3 10 -7z m110 -18 c-7 -9 -15 -13 -17 -11 -7 7 7 26 19 26 6 0 6 -6 -2 -15z m-62 -39 c-10 -7 -16 -15 -13 -17 2 -3 -5 -5 -15 -6 -16 -1 -17 1 -9 16 6 9 21 18 33 18 19 2 20 1 4 -11z m323 -40 c-14 -15 -18 -25 -11 -28 8 -2 6 -9 -6 -18 -16 -14 -17 -13 -11 3 4 10 2 17 -6 17 -7 0 1 12 16 25 36 32 47 32 18 1z m199 -129 c0 -1 -28 -29 -62 -62 -55 -54 -42 -32 22 36 22 23 40 35 40 26z m-125 -66 c-3 -6 -13 -11 -21 -11 -8 0 -12 -4 -9 -10 3 -5 -1 -10 -10 -10 -10 0 -15 -7 -13 -17 2 -13 -3 -17 -17 -15 -11 2 -22 6 -25 9 -7 7 41 42 68 49 12 3 22 11 22 17 0 6 3 8 6 4 3 -3 3 -10 -1 -16z m-95 -154 c0 -2 -10 -12 -22 -23 l-23 -19 19 23 c18 21 26 27 26 19z m-73 -81 c-3 -8 -1 -16 6 -19 8 -2 8 -5 -1 -11 -7 -4 -12 -2 -12 4 0 6 -5 8 -12 4 -7 -4 -8 -3 -4 4 4 7 1 12 -6 12 -9 0 -9 3 2 10 22 14 33 12 27 -4z"/>
        <path d="M2619 1933 c-13 -16 -12 -17 4 -4 16 13 21 21 13 21 -2 0 -10 -8 -17 -17z"/>
        <path d="M2589 1883 c-13 -16 -12 -17 4 -4 9 7 17 15 17 17 0 8 -8 3 -21 -13z"/>
        <path d="M2936 1873 c-12 -12 -5 -23 14 -23 11 0 20 4 20 9 0 11 -26 22 -34 14z"/>
        <path d="M425 1823 c-13 -16 -46 -55 -114 -138 -44 -55 -43 -53 -29 -61 7 -4 10 -4 6 1 -5 5 2 13 15 20 12 6 21 17 19 23 -1 7 5 12 13 12 8 0 17 11 21 25 3 14 9 23 13 20 4 -2 15 13 25 34 9 22 26 41 37 44 12 3 18 10 15 16 -3 5 2 12 11 14 17 4 17 5 1 6 -10 0 -25 -7 -33 -16z"/>
        <path d="M420 1726 c0 -9 5 -16 10 -16 6 0 10 4 10 9 0 6 -4 13 -10 16 -5 3 -10 -1 -10 -9z"/>
        <path d="M397 1703 c-4 -3 -7 -11 -7 -17 0 -6 5 -5 12 2 6 6 9 14 7 17 -3 3 -9 2 -12 -2z"/>
        <path d="M170 1639 c0 -5 5 -7 10 -4 6 3 10 8 10 11 0 2 -4 4 -10 4 -5 0 -10 -5 -10 -11z"/>
        <path d="M76 1617 c3 -10 9 -15 12 -12 3 3 0 11 -7 18 -10 9 -11 8 -5 -6z"/>
        <path d="M2845 1620 c3 -5 8 -10 11 -10 2 0 4 5 4 10 0 6 -5 10 -11 10 -5 0 -7 -4 -4 -10z"/>
        <path d="M240 1592 c0 -6 -6 -9 -14 -6 -9 4 -13 -3 -13 -21 0 -17 3 -23 11 -16 6 5 19 10 28 12 15 4 15 6 2 23 -8 11 -14 15 -14 8z"/>
        <path d="M284 1568 c-11 -13 -28 -36 -38 -53 l-18 -30 28 31 c28 30 58 74 51 74 -2 0 -12 -10 -23 -22z"/>
        <path d="M105 1540 c3 -5 8 -10 11 -10 2 0 4 5 4 10 0 6 -5 10 -11 10 -5 0 -7 -4 -4 -10z"/>
        <path d="M204 1465 c-16 -12 -17 -14 -3 -15 9 0 19 7 23 15 7 19 5 19 -20 0z"/>
        <path d="M1170 1365 c-11 -13 -10 -14 4 -9 9 3 16 10 16 15 0 13 -6 11 -20 -6z"/>
        <path d="M218 1174 c-5 -4 -8 -19 -8 -33 0 -18 3 -22 11 -14 6 6 9 21 7 33 -1 12 -6 18 -10 14z"/>
        <path d="M2805 1118 c-16 -18 -20 -24 -7 -13 12 10 25 15 30 11 4 -5 -4 -16 -18 -25 -13 -9 -36 -26 -50 -39 l-25 -22 27 10 c68 24 168 84 168 100 0 9 -14 7 -68 -9 -29 -9 -32 -8 -22 4 23 28 -5 14 -35 -17z"/>
        <path d="M1378 961 c-23 -22 -40 -43 -36 -46 6 -6 88 68 88 80 0 11 -10 4 -52 -34z"/>
        <path d="M1270 952 c0 -15 31 -72 40 -72 13 0 20 28 7 33 -7 2 -12 12 -12 23 0 10 -8 20 -17 22 -10 2 -18 -1 -18 -6z"/>
        <path d="M300 931 c0 -6 5 -13 10 -16 6 -3 10 1 10 9 0 9 -4 16 -10 16 -5 0 -10 -4 -10 -9z"/>
        <path d="M357 923 c6 -16 8 -16 23 1 9 12 8 15 -8 13 -12 0 -18 -6 -15 -14z"/>
        <path d="M2480 906 c0 -9 5 -16 10 -16 6 0 10 4 10 9 0 6 -4 13 -10 16 -5 3 -10 -1 -10 -9z"/>
        <path d="M1170 891 c0 -5 9 -11 20 -14 13 -3 20 0 20 9 0 8 -9 14 -20 14 -11 0 -20 -4 -20 -9z"/>
        <path d="M1250 889 c0 -5 5 -7 10 -4 6 3 10 8 10 11 0 2 -4 4 -10 4 -5 0 -10 -5 -10 -11z"/>
        <path d="M200 880 c0 -5 5 -10 10 -10 6 0 10 5 10 10 0 6 -4 10 -10 10 -5 0 -10 -4 -10 -10z"/>
        <path d="M1030 880 c0 -5 7 -10 15 -10 8 0 15 5 15 10 0 6 -7 10 -15 10 -8 0 -15 -4 -15 -10z"/>
        <path d="M1630 875 c-7 -8 -8 -15 -2 -15 5 0 15 7 22 15 7 8 8 15 2 15 -5 0 -15 -7 -22 -15z"/>
        <path d="M1010 860 c0 -6 -7 -10 -15 -10 -8 0 -15 -7 -15 -15 0 -12 4 -13 18 -6 42 24 45 28 28 34 -9 4 -16 2 -16 -3z"/>
        <path d="M945 800 c4 -6 11 -8 16 -5 14 9 11 15 -7 15 -8 0 -12 -5 -9 -10z"/>
        <path d="M1248 772 c-16 -9 -28 -23 -28 -31 0 -11 6 -9 23 6 38 35 48 37 38 10 -6 -14 -7 -27 -5 -30 3 -3 -3 -4 -13 -3 -11 0 -17 -5 -15 -13 3 -12 1 -12 -14 0 -10 8 -15 9 -11 3 4 -7 -6 -17 -24 -24 -26 -11 -32 -11 -40 1 -5 8 -9 10 -9 5 0 -5 -6 -3 -14 3 -12 10 -13 8 -9 -9 3 -13 11 -19 19 -16 8 3 14 -1 14 -9 0 -17 26 -20 35 -5 3 6 11 10 17 10 5 0 1 -16 -11 -36 -24 -39 -25 -44 -12 -44 5 0 12 11 15 25 4 15 11 23 17 19 6 -4 15 0 20 7 5 8 9 9 9 3 0 -6 -11 -21 -25 -34 -14 -13 -25 -28 -25 -32 0 -5 -7 -16 -15 -24 -8 -9 -15 -20 -15 -25 0 -17 18 -9 33 14 8 13 49 43 91 67 42 24 76 47 76 52 0 4 18 26 39 47 l39 39 -76 17 c-42 10 -81 19 -87 21 -5 2 -22 -4 -37 -14z"/>
        <path d="M2527 779 c-9 -5 -21 -8 -26 -5 -5 3 -11 -1 -15 -9 -8 -22 15 -30 30 -11 7 10 17 15 23 11 6 -3 11 1 11 9 0 19 0 18 -23 5z"/>
        <path d="M1106 755 c4 -8 8 -15 10 -15 2 0 4 7 4 15 0 8 -4 15 -10 15 -5 0 -7 -7 -4 -15z"/>
        <path d="M250 730 c0 -5 7 -10 16 -10 8 0 12 5 9 10 -3 6 -10 10 -16 10 -5 0 -9 -4 -9 -10z"/>
        <path d="M1184 715 c-10 -8 -14 -15 -8 -15 6 0 17 7 24 15 16 19 9 19 -16 0z"/>
        <path d="M664 605 c-10 -8 -14 -15 -8 -15 6 0 17 7 24 15 16 19 9 19 -16 0z"/>
        <path d="M575 560 c-16 -16 -24 -30 -18 -30 10 0 34 24 47 48 12 20 2 14 -29 -18z"/>
        <path d="M626 564 c-18 -17 -20 -24 -8 -24 4 0 13 9 20 20 15 24 9 26 -12 4z"/>
        <path d="M1459 543 c-13 -16 -12 -17 4 -4 16 13 21 21 13 21 -2 0 -10 -8 -17 -17z"/>
        <path d="M700 350 c0 -5 5 -10 10 -10 6 0 10 5 10 10 0 6 -4 10 -10 10 -5 0 -10 -4 -10 -10z"/>
        <path d="M1229 99 c-23 -28 -51 -54 -62 -58 -17 -6 -17 -9 -5 -14 22 -8 81 38 107 83 31 56 11 50 -40 -11z"/>
    </g>
</svg>
