<?xml version="1.0" standalone="no"?>
<svg version="1.0" xmlns="http://www.w3.org/2000/svg" width="100%" height="100%" viewBox="0 0 1920.000000 1080.000000" preserveAspectRatio="xMidYMid meet">
<g transform="translate(0.000000,1080.000000) scale(0.100000,-0.100000)" stroke="none">
<path d="M15156 8199 c-22 -10 -66 -24 -98 -29 -32 -6 -86 -15 -120 -21 -35
-5 -74 -18 -88 -27 -14 -9 -39 -22 -57 -28 -17 -6 -44 -21 -60 -33 -15 -13
-49 -37 -75 -54 -207 -140 -209 -142 -229 -224 -7 -26 -17 -55 -24 -63 -7 -8
-16 -40 -19 -71 -7 -55 -42 -117 -105 -187 -12 -12 -21 -33 -21 -45 0 -12 -7
-31 -15 -41 -8 -11 -15 -27 -15 -37 0 -9 -7 -22 -16 -29 -8 -8 -22 -27 -30
-44 -8 -17 -41 -78 -73 -136 -33 -58 -57 -107 -55 -109 8 -8 37 27 39 46 0 10
14 42 30 70 23 40 36 53 53 53 13 0 20 4 17 10 -3 6 -2 10 4 10 5 0 16 12 23
27 16 33 73 73 103 73 13 0 30 11 39 25 9 14 21 23 27 19 16 -9 68 16 74 37 5
16 10 17 28 8 16 -9 22 -9 25 0 2 6 12 11 22 11 19 0 30 19 30 52 0 14 5 18
15 14 8 -3 22 -9 30 -12 11 -5 15 1 15 25 0 22 7 35 25 47 14 9 25 24 25 34 0
10 9 22 20 25 22 7 25 16 10 31 -7 7 -6 16 3 29 16 20 37 13 37 -13 1 -42 15
-48 74 -28 45 16 58 17 71 6 8 -7 15 -19 15 -26 0 -8 5 -23 12 -33 10 -16 5
-26 -32 -71 -44 -52 -44 -52 -23 -69 12 -9 23 -25 25 -36 3 -17 10 -20 50 -17
52 3 53 2 62 -51 7 -36 6 -38 -14 -32 -11 4 -27 2 -34 -4 -16 -14 -108 -9
-124 7 -19 17 -53 15 -82 -8 l-25 -19 34 -35 35 -36 -30 0 c-17 0 -38 -8 -47
-18 -15 -16 -15 -21 -2 -38 21 -27 18 -35 -9 -28 -17 4 -27 0 -35 -13 -7 -12
-13 -14 -18 -7 -5 7 -17 13 -28 15 -27 5 -33 49 -9 66 17 12 17 14 2 29 -24
24 -68 11 -68 -20 0 -18 -8 -27 -30 -35 -41 -14 -38 -34 15 -85 l46 -43 -57
-57 c-55 -56 -56 -57 -71 -36 -10 14 -21 19 -34 15 -14 -5 -19 -1 -19 14 0 36
-19 32 -45 -9 -14 -22 -36 -45 -50 -50 -13 -5 -27 -16 -32 -25 -10 -17 -29
-23 -75 -24 -22 -1 -29 -7 -36 -33 -8 -31 -11 -33 -46 -30 -21 2 -44 -2 -52
-9 -8 -6 -25 -9 -39 -7 -30 6 -40 -5 -22 -24 14 -14 15 -49 4 -179 -8 -87 -9
-91 -29 -110 -27 -25 -7 -81 37 -105 20 -10 33 -24 31 -31 -3 -7 10 -14 35
-18 22 -4 49 -16 60 -28 14 -15 19 -17 19 -6 1 8 11 -17 24 -56 20 -61 29 -73
68 -100 57 -37 85 -80 68 -100 -10 -12 -6 -21 19 -46 17 -17 31 -39 31 -49 0
-37 12 -50 45 -50 27 0 32 -3 28 -19 -2 -10 -12 -18 -21 -17 -13 1 -16 -6 -14
-32 2 -21 -3 -40 -13 -52 -9 -10 -14 -23 -11 -28 3 -5 0 -15 -7 -20 -9 -8 -27
-7 -63 4 -27 8 -59 12 -71 9 -16 -4 -26 1 -35 15 -18 28 -28 25 -28 -8 0 -16
-3 -31 -6 -35 -11 -10 -52 15 -63 39 -13 29 -31 32 -31 5 0 -11 -4 -23 -10
-26 -20 -12 -10 -35 16 -35 35 0 26 -20 -22 -47 -32 -18 -55 -23 -121 -23 -46
0 -83 4 -83 8 0 4 -9 8 -20 8 -11 0 -20 -4 -20 -9 0 -4 -4 -6 -9 -3 -5 4 -12
0 -14 -6 -4 -10 -6 -10 -6 0 -1 7 -6 10 -13 6 -8 -5 -9 -2 -4 12 4 10 4 15 0
12 -3 -4 -22 -1 -41 7 -76 32 -175 6 -199 -52 -8 -18 -20 -33 -28 -33 -8 0
-21 -12 -31 -26 -14 -21 -21 -24 -46 -19 -38 9 -69 -17 -69 -56 0 -21 -6 -29
-30 -38 -16 -5 -30 -14 -30 -19 0 -15 64 -42 74 -31 6 5 20 9 32 9 28 0 57 28
50 47 -8 19 17 26 68 19 37 -6 45 -11 51 -34 9 -37 -26 -66 -70 -58 -33 6 -63
-11 -119 -66 -15 -16 -31 -28 -36 -28 -5 0 -8 -17 -7 -37 2 -35 -1 -39 -30
-47 -18 -6 -36 -20 -43 -34 -9 -21 -15 -23 -43 -18 -37 7 -61 26 -33 26 22 0
16 24 -7 28 -11 2 -17 -3 -17 -13 0 -12 -5 -15 -17 -10 -10 3 -47 14 -83 24
-82 23 -173 68 -164 82 3 6 12 8 20 5 8 -3 14 -1 14 4 0 6 7 10 15 10 22 0 18
21 -5 27 -21 6 -26 18 -11 27 5 3 12 18 15 32 4 14 16 39 28 54 20 28 34 100
20 100 -4 0 -15 -26 -25 -57 -12 -40 -33 -77 -68 -118 -28 -33 -56 -62 -61
-64 -13 -4 -68 20 -68 30 0 5 6 9 13 9 7 1 4 6 -6 15 -13 9 -17 20 -12 34 5
17 2 21 -14 21 -11 0 -23 4 -26 10 -8 13 -60 2 -113 -22 -40 -19 -44 -19 -67
-4 -14 9 -24 20 -24 24 5 32 -27 45 -49 19 -6 -7 -32 -14 -57 -15 -36 -1 -53
-8 -74 -29 -39 -39 -81 -73 -91 -73 -14 0 -31 -55 -33 -111 l-2 -54 -42 3 -43
3 2 -43 c0 -24 4 -45 8 -48 4 -3 10 -17 14 -33 6 -27 6 -27 -36 -21 -24 4 -51
11 -62 16 -10 6 -73 12 -140 15 -110 5 -123 8 -147 29 -14 13 -33 24 -42 24
-9 0 -23 13 -32 30 -8 16 -29 46 -46 65 -38 43 -75 46 -117 10 -17 -14 -34
-25 -40 -25 -5 0 -31 20 -58 45 -26 25 -52 45 -59 45 -6 0 -31 21 -55 46 -25
25 -53 50 -63 56 -31 16 -5 -22 47 -70 25 -23 46 -49 46 -58 0 -8 4 -12 10 -9
11 7 80 -63 80 -82 0 -6 -9 -15 -20 -18 -11 -3 -20 -10 -20 -15 0 -5 -13 -18
-28 -29 l-29 -20 -37 25 c-43 29 -50 27 -40 -10 5 -19 10 -24 18 -16 9 6 18 5
31 -4 21 -15 12 -36 -15 -36 -13 0 -24 -14 -36 -45 -9 -25 -34 -61 -55 -80
-23 -20 -36 -40 -33 -49 3 -7 -5 -22 -18 -32 -13 -11 -43 -44 -68 -75 -24 -30
-61 -67 -82 -82 -22 -16 -35 -32 -32 -40 7 -20 -21 -40 -46 -32 -22 7 -22 10
-3 92 7 30 -25 44 -43 18 -12 -16 -13 -16 -20 9 -6 26 -19 34 -26 17 -1 -5
-11 1 -21 14 -12 17 -14 26 -5 31 6 4 8 3 5 -3 -4 -6 -1 -16 7 -22 10 -9 13
-5 14 17 0 23 -4 28 -24 30 -14 1 -39 -8 -55 -21 -30 -22 -31 -22 -45 -2 -14
19 -15 19 -42 -8 -15 -15 -38 -38 -52 -50 -14 -12 -31 -34 -38 -48 l-14 -26
-31 29 c-18 16 -44 36 -59 44 -16 8 -28 19 -28 24 0 6 -9 10 -20 10 -23 0 -25
9 -9 43 22 48 -47 97 -107 77 -31 -10 -34 -15 -34 -50 0 -21 6 -43 15 -50 21
-17 12 -26 -32 -34 -27 -4 -49 -18 -77 -47 -45 -48 -61 -95 -46 -134 8 -22 7
-31 -5 -45 -8 -9 -15 -22 -15 -29 0 -10 -7 -9 -26 4 -24 16 -27 16 -45 -1 -10
-9 -19 -23 -19 -31 0 -22 -25 -25 -66 -9 -39 16 -39 16 -16 -3 12 -11 22 -29
22 -42 0 -22 0 -22 18 -2 26 30 50 35 62 13 14 -25 13 -30 -6 -30 -13 0 -15
-7 -10 -35 6 -30 5 -34 -10 -28 -11 4 -15 3 -10 -5 3 -6 2 -13 -4 -17 -5 -3
-10 1 -10 9 0 8 -5 18 -10 21 -6 4 -10 3 -9 -2 4 -21 -2 -46 -8 -39 -5 4 -8
11 -8 14 -1 20 -20 32 -49 32 -23 0 -41 -9 -66 -35 -19 -19 -45 -35 -57 -35
-12 0 -34 -5 -50 -11 -15 -6 -50 -13 -78 -15 -27 -2 -61 -5 -75 -7 -20 -2 -24
2 -22 17 3 17 -12 35 -30 36 -5 0 -8 -10 -8 -23 0 -13 -3 -26 -6 -30 -12 -11
-34 6 -34 27 0 11 -5 28 -10 36 -6 10 -3 21 12 37 29 31 17 53 -29 53 -21 0
-56 5 -78 11 -22 5 -47 11 -55 13 -21 4 -25 35 -6 42 11 4 16 19 16 44 0 28 5
40 18 43 14 4 14 5 -3 6 -11 1 -36 15 -55 31 -31 26 -34 31 -23 49 12 19 11
20 -15 15 -21 -4 -33 1 -51 20 -25 26 -51 34 -51 16 0 -5 -11 -12 -25 -16 -14
-3 -25 -11 -26 -18 0 -6 -4 -1 -9 12 -5 12 -15 22 -22 21 -10 0 -10 -2 0 -6
17 -7 15 -40 -3 -47 -8 -3 -15 -1 -15 4 0 6 5 10 10 10 6 0 10 5 10 10 0 6 -8
5 -20 -2 -11 -7 -18 -18 -16 -24 2 -6 0 -17 -6 -25 -8 -11 -9 -10 -4 4 3 9 1
17 -4 17 -6 0 -10 -6 -10 -13 0 -13 -68 -82 -108 -109 l-23 -15 31 -13 c17 -7
30 -20 30 -30 0 -27 80 -60 134 -55 23 2 36 -1 36 -8 0 -7 9 -18 19 -24 15 -9
23 -9 37 2 11 8 27 15 37 15 9 0 17 4 17 8 0 5 15 16 34 25 l35 16 21 -36 21
-36 -22 -23 c-12 -13 -36 -26 -53 -29 -61 -13 -121 -38 -142 -60 -36 -38 -79
-55 -142 -55 -33 0 -72 -7 -88 -15 -16 -8 -37 -12 -47 -9 -10 3 -19 -1 -23
-10 -3 -9 -14 -16 -24 -16 -19 0 -35 -27 -20 -32 18 -6 -2 -47 -24 -50 -12 -2
-27 -16 -36 -35 -19 -41 -31 -42 -23 -3 4 23 2 30 -11 30 -9 0 -16 -5 -16 -11
0 -6 -16 3 -35 20 -36 31 -42 32 -107 15 -9 -3 -34 -27 -54 -54 -21 -28 -46
-50 -56 -50 -20 0 -25 -29 -8 -46 12 -12 2 -74 -12 -74 -5 0 -6 5 -3 11 5 7 1
8 -11 1 -11 -5 -32 -14 -49 -19 -16 -5 -29 -15 -27 -21 1 -7 -4 -12 -11 -12
-7 0 -23 -9 -35 -20 -28 -26 -32 -25 -32 6 0 45 -33 91 -55 75 -5 -5 -21 -11
-35 -15 -34 -8 -93 -65 -125 -120 -16 -28 -34 -46 -45 -46 -28 0 -35 -48 -12
-74 39 -43 53 -86 28 -86 -20 0 -29 -16 -21 -40 4 -13 15 -20 31 -20 27 0 58
23 46 34 -10 10 30 -5 54 -21 15 -10 20 -21 16 -38 -4 -21 -10 -25 -42 -25
-33 0 -39 -4 -49 -30 -5 -16 -15 -30 -20 -30 -6 0 -13 -11 -17 -25 -3 -14 -13
-25 -22 -25 -8 0 -23 -7 -32 -15 -15 -14 -24 -14 -89 2 -43 10 -71 22 -71 30
0 16 -12 17 -28 1 -9 -9 -31 -9 -94 0 -46 7 -96 14 -113 16 -16 2 -44 10 -62
17 -29 12 -34 11 -55 -8 -19 -18 -31 -20 -71 -16 -37 4 -52 2 -67 -12 -25 -22
-49 -16 -125 33 -61 39 -135 63 -135 42 0 -6 -16 -18 -35 -27 -19 -9 -32 -20
-29 -24 3 -5 0 -18 -6 -29 -9 -17 -8 -27 4 -45 20 -31 20 -69 0 -89 -17 -17
-31 -13 -52 16 -7 10 -19 18 -27 18 -21 0 -28 19 -14 36 10 13 10 17 -1 24
-16 10 -33 3 -25 -10 9 -15 -13 -21 -33 -9 -26 16 -56 4 -49 -20 3 -14 1 -18
-9 -14 -21 8 -17 -15 6 -29 26 -17 25 -34 -1 -41 -12 -3 -18 -10 -15 -16 4 -7
15 -7 31 -1 15 6 27 6 30 0 4 -6 21 -10 40 -10 19 0 36 -4 39 -9 3 -5 27 -6
53 -3 48 5 48 5 30 -16 -15 -17 -16 -23 -6 -40 18 -28 -31 -112 -65 -112 -22
0 -22 2 -12 34 6 20 21 39 34 46 30 13 25 40 -10 60 -25 13 -30 13 -57 -3 -39
-23 -55 -22 -74 6 l-16 22 -20 -25 c-19 -24 -20 -24 -41 -5 -24 22 -62 22 -97
-1 -31 -19 -43 -18 -43 6 0 11 -6 21 -12 21 -7 1 -20 3 -28 3 -56 5 -125 49
-125 81 0 5 -10 12 -22 15 -23 5 -52 39 -71 82 -13 32 -58 39 -69 12 -4 -12
-14 -14 -40 -9 -24 4 -33 3 -28 -4 4 -8 -2 -8 -19 -1 -25 9 -26 8 -26 -25 0
-29 -4 -35 -21 -35 -12 0 -23 -8 -26 -18 -6 -23 -40 -45 -48 -32 -3 6 -1 10 6
10 10 0 10 3 1 12 -10 10 -14 10 -21 0 -7 -11 -11 -10 -24 2 -21 22 -37 20
-37 -4 0 -22 -28 -28 -47 -9 -14 14 -24 -3 -13 -21 7 -12 15 -12 43 -2 45 16
62 15 82 -5 13 -13 18 -14 25 -3 4 7 17 10 29 7 23 -6 38 8 21 18 -7 5 -5 12
7 20 15 11 21 11 35 -2 10 -9 25 -13 34 -9 10 4 25 -1 35 -10 11 -10 28 -15
44 -12 20 4 23 3 14 -8 -6 -7 -17 -10 -25 -7 -18 7 -46 -16 -40 -33 3 -7 -2
-15 -10 -18 -17 -7 -19 -47 -2 -64 9 -9 9 -15 1 -23 -8 -8 -23 -3 -56 21 -30
21 -62 34 -91 37 -25 3 -44 8 -42 12 6 9 -97 7 -112 -2 -14 -10 -27 16 -18 38
4 11 -2 15 -20 15 -30 0 -55 43 -36 62 15 15 16 88 2 88 -15 0 -12 50 3 52 6
0 -8 4 -33 7 -58 8 -100 2 -100 -14 0 -7 -12 -15 -27 -18 -28 -5 -73 10 -73
25 0 4 -7 8 -15 8 -8 0 -23 4 -33 9 -9 5 -30 15 -45 22 -22 10 -27 19 -25 38
2 21 8 26 31 26 17 -1 27 5 27 13 0 9 6 12 18 9 110 -37 152 -34 152 9 0 24
-3 26 -35 22 -28 -3 -35 0 -37 16 -2 10 -15 28 -30 39 -23 17 -31 19 -53 9
-21 -10 -30 -9 -52 5 -24 16 -26 16 -39 -2 -12 -16 -11 -20 6 -32 24 -17 26
-51 4 -60 -8 -3 -33 3 -55 13 -35 17 -39 22 -33 46 5 26 4 28 -25 22 -21 -4
-31 -3 -31 5 0 7 5 9 10 6 13 -8 49 35 43 51 -2 7 -27 15 -54 19 -57 8 -63 14
-49 50 7 20 7 31 -1 41 -9 11 -7 14 9 14 30 0 34 14 11 33 -24 21 -30 21 -23
2 11 -26 -13 -16 -55 24 -23 22 -41 47 -41 55 0 9 -8 16 -19 16 -11 0 -21 5
-23 12 -3 9 -13 9 -39 -2 -48 -19 -69 -39 -69 -67 0 -23 3 -24 58 -22 56 3 59
1 54 -30 -1 -5 -20 -12 -42 -16 -40 -7 -40 -7 -40 -52 0 -43 -1 -45 -17 -31
-21 18 -44 13 -36 -7 3 -8 -2 -22 -11 -30 -9 -9 -16 -23 -16 -31 0 -11 -9 -9
-40 7 -46 24 -104 20 -119 -9 -14 -26 -1 -39 37 -39 39 0 49 -8 32 -28 -16
-19 -40 -19 -40 0 0 8 -8 15 -19 15 -14 0 -21 -10 -25 -35 -7 -37 -22 -38 -35
-2 -8 21 -8 21 -34 -5 -25 -25 -28 -26 -47 -10 -11 9 -30 32 -43 51 -19 27
-30 34 -62 36 -22 1 -49 -2 -59 -8 -29 -14 -115 -18 -138 -6 -19 10 -19 11 -1
31 10 11 34 28 53 39 19 10 53 33 74 52 33 28 38 38 33 59 -8 29 -32 58 -49
58 -6 0 -5 -7 3 -17 8 -9 9 -14 3 -10 -6 4 -19 -8 -30 -28 -10 -19 -26 -38
-36 -41 -10 -3 -15 -11 -11 -20 6 -16 -18 -19 -33 -4 -6 6 -19 4 -38 -5 -20
-11 -33 -12 -47 -5 -15 8 -19 7 -19 -3 0 -8 -12 -22 -26 -32 -14 -9 -34 -25
-45 -36 -16 -16 -23 -18 -35 -8 -17 14 -19 33 -2 23 7 -4 8 -3 4 5 -4 6 -9 36
-12 67 -3 43 0 56 12 61 10 4 14 13 10 29 -3 12 -1 34 5 47 8 18 8 30 -1 46
-12 23 -5 61 12 61 15 0 47 42 48 63 0 10 6 20 14 23 21 8 27 32 14 54 -16 25
-2 38 23 22 19 -12 20 -12 4 18 -9 17 -23 34 -31 37 -17 6 -74 -43 -74 -64 0
-7 -12 -15 -27 -19 -53 -12 -63 -15 -63 -25 0 -6 14 -7 35 -3 42 8 46 -7 6
-22 -34 -13 -52 -62 -27 -76 52 -29 -37 -120 -192 -196 -65 -33 -83 -38 -80
-25 2 10 20 26 41 37 45 23 47 36 8 36 -21 0 -32 -6 -36 -21 -5 -15 -14 -19
-33 -17 -32 4 -37 31 -7 36 19 4 45 28 45 43 0 4 -9 9 -20 12 -20 5 -50 -15
-50 -34 0 -5 -7 -9 -15 -9 -8 0 -15 5 -15 10 0 6 -10 10 -23 10 -25 0 -77 -21
-77 -31 0 -11 24 -26 53 -33 15 -4 25 -11 22 -16 -3 -5 0 -7 8 -4 25 9 31 -16
8 -32 -27 -19 -26 -28 1 -54 21 -19 21 -20 2 -20 -10 0 -28 -7 -38 -15 -29
-22 -53 -18 -72 10 -18 28 -13 55 11 55 23 0 65 30 65 46 0 10 -14 13 -51 12
-34 0 -54 4 -60 13 -12 19 -11 25 7 43 14 15 14 16 -5 16 -20 0 -51 24 -51 41
0 5 13 9 28 9 15 0 33 5 39 11 8 8 19 6 41 -5 28 -15 34 -14 75 3 52 22 59 35
40 72 -25 50 -100 57 -126 13 -4 -8 -18 -13 -31 -12 -17 2 -22 7 -18 21 3 10
11 21 18 24 21 8 17 29 -8 39 -34 15 -61 6 -55 -17 6 -23 -15 -26 -33 -4 -7 8
-19 15 -26 15 -17 0 -17 5 -4 29 8 16 5 18 -22 17 -22 -1 -33 -8 -39 -24 l-8
-22 -38 20 c-21 11 -45 20 -55 20 -23 0 -48 -38 -48 -72 0 -39 -24 -36 -54 8
-13 20 -33 42 -45 50 -12 9 -21 23 -21 32 0 9 -9 32 -21 51 -16 27 -19 43 -14
81 6 42 4 50 -16 64 -13 9 -36 16 -51 16 -34 0 -43 14 -22 34 17 18 44 21 44
6 0 -16 23 -11 48 9 29 25 28 35 -5 60 -23 19 -29 20 -47 8 -11 -8 -23 -25
-26 -38 -9 -36 -31 -29 -47 16 -7 21 -19 43 -26 47 -22 14 -35 9 -30 -12 3
-11 9 -20 14 -20 18 0 9 -37 -14 -58 -31 -29 -40 -28 -80 12 -19 18 -50 39
-70 45 -30 10 -40 10 -62 -5 -14 -9 -24 -23 -21 -30 3 -7 -1 -24 -7 -39 -10
-21 -17 -25 -39 -21 -18 4 -28 1 -28 -7 0 -6 -9 -27 -20 -44 -24 -40 -55 -36
-47 6 6 32 -16 50 -61 51 -46 0 -133 86 -131 127 3 40 -11 95 -29 116 -22 24
-63 21 -91 -8 -26 -28 -41 -32 -41 -10 0 8 -7 15 -15 15 -19 0 -19 -17 0 -36
8 -9 15 -20 15 -25 0 -17 -40 -9 -57 11 -10 11 -28 20 -41 20 -22 0 -24 -3
-18 -31 5 -26 3 -30 -10 -25 -9 3 -18 6 -20 6 -2 0 -4 6 -4 13 0 21 -42 55
-47 39 -3 -7 -16 -26 -29 -41 -13 -16 -24 -34 -24 -40 0 -6 -4 -11 -10 -11 -6
0 -6 -9 0 -25 12 -31 -6 -44 -25 -19 -14 18 -14 18 -15 1 0 -14 -5 -17 -22
-12 -13 3 -18 3 -12 -2 17 -13 36 -52 29 -63 -7 -12 -35 -13 -35 -2 0 4 -16
14 -35 21 -20 7 -44 21 -54 32 -10 11 -38 23 -62 28 -42 8 -43 8 -16 16 33 9
31 30 -3 30 -29 0 -60 -55 -60 -108 0 -50 -39 -111 -82 -127 -81 -29 -85 -29
-81 -6 6 27 -30 46 -85 46 -33 -1 -35 -2 -19 -14 9 -7 17 -22 17 -34 0 -11 7
-22 15 -26 8 -3 15 -13 15 -22 0 -11 -5 -14 -16 -10 -9 3 -27 9 -40 12 -23 6
-24 4 -18 -20 6 -27 6 -27 -28 -21 -30 6 -36 4 -41 -14 -6 -25 -39 -18 -35 8
3 16 -13 42 -59 101 -28 35 -29 56 -3 63 11 3 20 12 20 20 0 18 28 16 40 -2 5
-10 13 -10 27 -2 43 22 72 101 38 101 -8 0 -15 -4 -15 -9 0 -5 -7 -11 -15 -15
-13 -5 -14 -2 -4 15 7 13 7 19 1 15 -21 -13 -22 14 -2 34 27 27 26 65 -2 85
-18 12 -24 12 -27 3 -4 -15 -31 -38 -44 -38 -5 0 -7 11 -5 25 5 22 3 25 -16
19 -56 -18 -74 -46 -67 -103 2 -7 -2 -10 -8 -7 -5 4 -13 2 -16 -4 -8 -13 14
-42 26 -34 5 3 18 2 30 -1 17 -6 18 -9 8 -22 -12 -14 -43 -14 -113 -1 -10 1
-21 -2 -23 -8 -4 -13 39 -44 69 -49 32 -6 34 -15 5 -15 -28 0 -110 -67 -101
-82 12 -19 -9 -29 -32 -14 -32 21 -74 20 -104 -4 -36 -28 -60 -26 -60 5 0 18
-5 25 -19 25 -10 0 -24 7 -31 15 -10 12 -10 15 0 15 8 0 11 2 9 4 -2 2 -24 0
-49 -5 -25 -6 -55 -10 -66 -10 -15 0 -23 -7 -26 -23 -5 -26 18 -54 68 -79 27
-14 34 -14 59 -1 36 19 45 18 79 -10 18 -15 24 -26 17 -30 -6 -4 -9 -12 -5
-17 3 -6 11 -3 18 6 11 16 15 16 52 -1 l39 -19 -57 -3 c-32 -2 -58 -7 -58 -12
0 -4 -3 -15 -6 -23 -3 -10 2 -18 14 -21 11 -4 22 -16 25 -28 5 -18 11 -20 42
-14 24 5 42 3 52 -6 8 -7 25 -12 36 -13 17 0 21 -7 23 -47 2 -26 0 -47 -4 -47
-21 3 -30 -4 -36 -26 -4 -14 -12 -25 -18 -25 -19 0 25 -29 45 -30 20 0 23 -30
3 -30 -8 0 -16 -10 -18 -22 -3 -20 -9 -23 -53 -24 -64 -1 -103 -17 -114 -48
-6 -14 -21 -26 -38 -30 -15 -4 -38 -17 -51 -28 -12 -12 -22 -17 -22 -12 0 5
-9 10 -19 11 -14 1 -18 -3 -14 -14 5 -13 2 -15 -11 -10 -10 4 -15 3 -11 -3 3
-6 -1 -10 -9 -10 -9 0 -26 -11 -38 -25 -12 -14 -27 -25 -34 -25 -17 0 -25 -40
-13 -63 16 -29 -2 -42 -39 -29 -23 8 -37 7 -57 -4 -36 -18 -74 -18 -82 1 -9
25 -64 43 -96 32 -34 -12 -35 -39 -2 -83 29 -37 30 -44 11 -44 -21 0 -96 -160
-96 -207 0 -45 -10 -58 -55 -69 -71 -17 -99 -46 -107 -114 -2 -17 -10 -26 -25
-28 l-23 -3 0 -471 0 -470 25 -20 c31 -24 31 -29 1 -65 -22 -26 -24 -37 -23
-131 1 -56 4 -102 8 -102 4 0 6 -24 5 -52 -3 -53 6 -88 24 -88 14 0 85 -72 93
-94 7 -18 8 -18 27 -1 10 9 18 24 18 33 -1 10 3 34 7 54 8 41 2 47 -21 23 -24
-23 -29 -19 -47 40 -31 102 -27 102 102 -12 26 -24 51 -40 55 -36 4 4 27 -4
51 -17 l44 -24 -52 -22 c-59 -25 -69 -44 -32 -64 32 -17 32 -26 0 -34 -14 -4
-25 -12 -25 -20 0 -23 -29 -39 -76 -41 -32 -1 -49 -7 -56 -19 -14 -25 -28 -9
-22 23 5 23 2 32 -15 41 -19 10 -23 8 -33 -20 -6 -18 -21 -35 -34 -40 -24 -9
-24 -10 -24 -165 0 -94 4 -154 9 -150 17 10 22 -13 6 -28 -11 -11 -15 -37 -15
-86 0 -63 2 -70 17 -64 10 3 33 21 51 40 24 24 42 33 66 33 18 0 36 -3 39 -7
9 -8 -32 -53 -47 -53 -6 0 -17 -10 -25 -21 -11 -18 -11 -23 0 -30 8 -4 10 -11
6 -16 -5 -4 -12 -2 -16 6 -6 8 -19 10 -44 6 -42 -8 -48 -24 -46 -124 1 -55 5
-71 18 -74 14 -4 14 -5 -1 -6 -10 0 -18 -6 -18 -12 0 -6 9 -8 20 -4 11 4 20 2
20 -4 0 -6 -9 -11 -20 -11 -17 0 -20 -7 -20 -45 0 -43 1 -45 30 -45 17 0 30
-4 30 -9 0 -13 -26 -32 -41 -29 -10 2 -15 -13 -17 -56 -3 -63 4 -76 45 -76 12
0 23 -5 25 -11 2 -6 22 -14 43 -18 27 -4 41 -12 43 -25 4 -21 -35 -66 -58 -66
-9 0 -22 -6 -28 -12 -10 -10 -17 -10 -32 0 -26 16 -40 15 -40 -3 0 -12 15 -15
71 -15 57 0 70 3 66 14 -5 12 30 56 45 56 3 0 22 -16 42 -35 l37 -35 9470 0
9469 0 0 2629 0 2630 -32 3 c-24 2 -34 9 -41 31 -8 24 -5 33 18 56 27 29 31
53 25 134 -4 46 -30 60 -91 51 l-39 -7 0 40 c0 30 -6 45 -25 61 -26 23 -69 29
-80 12 -10 -16 -55 -12 -62 6 -8 20 17 66 40 72 9 2 17 10 17 18 0 7 14 29 31
49 38 43 24 47 -16 5 -33 -35 -38 -36 -65 -13 -14 13 -17 20 -8 30 8 10 5 13
-16 13 -17 0 -29 7 -32 18 -20 61 -28 73 -54 79 -31 6 -40 31 -40 113 0 37 -6
55 -30 85 -16 21 -30 39 -30 40 0 1 14 2 30 2 39 0 53 14 55 58 2 23 12 44 29
61 14 15 26 30 26 34 0 17 31 18 65 4 20 -8 45 -12 56 -9 11 4 26 2 33 -4 8
-6 29 -8 55 -3 l42 7 4 59 c4 68 15 79 68 70 41 -6 66 12 67 49 0 17 -7 18
-55 15 -30 -1 -55 0 -55 5 0 4 -11 5 -24 1 -16 -4 -34 0 -48 10 -12 9 -34 16
-49 16 -30 0 -39 19 -39 82 0 31 3 35 20 31 11 -3 20 0 20 6 0 6 8 11 18 11
14 0 62 58 62 75 0 3 -13 5 -30 5 -32 0 -41 16 -12 22 9 2 34 0 55 -4 21 -5
43 -6 48 -2 17 10 59 -5 59 -21 0 -8 6 -15 14 -15 12 0 14 27 15 143 l1 142
-30 17 c-24 14 -30 24 -30 52 0 29 5 38 30 51 l30 16 0 250 0 251 -37 -4 c-21
-3 -56 -1 -78 4 -22 5 -56 11 -75 13 -19 2 -55 11 -79 19 -33 12 -64 14 -126
10 -74 -6 -88 -4 -120 15 -40 23 -104 28 -138 9 -12 -7 -49 -16 -82 -20 -33
-3 -82 -10 -110 -13 -45 -6 -58 -2 -130 33 -44 22 -108 62 -142 90 -73 59
-135 78 -225 68 -45 -4 -67 -2 -91 10 -23 13 -47 15 -98 11 -81 -7 -128 4
-157 38 -36 41 -48 33 -60 -37 -6 -36 -14 -46 -45 -63 -20 -11 -51 -39 -68
-63 -26 -36 -31 -49 -26 -82 5 -39 3 -41 -68 -106 -41 -36 -86 -85 -100 -110
-29 -50 -43 -59 -102 -69 -56 -9 -59 -8 -55 20 4 29 -12 33 -27 8 -14 -25 -14
47 0 107 6 25 11 143 12 267 0 188 -3 226 -16 247 -20 29 -116 86 -147 86 -12
0 -40 10 -61 22 -32 18 -43 20 -64 10 -40 -18 -201 -62 -228 -62 -13 0 -35 -8
-48 -19 -13 -10 -47 -29 -74 -43 -28 -13 -76 -45 -107 -70 -31 -25 -63 -50
-70 -55 -8 -4 -27 -25 -42 -45 -16 -21 -34 -38 -42 -38 -7 0 -19 -10 -25 -22
-20 -38 -57 -67 -102 -78 -23 -6 -54 -16 -69 -21 -41 -17 -110 14 -203 89
l-80 64 -59 -6 c-39 -4 -67 -13 -81 -26 -41 -38 -84 -16 -46 24 12 12 21 27
21 33 0 5 10 18 21 29 31 27 46 69 54 146 l7 66 -57 38 c-83 55 -224 71 -299
33z m3824 -784 c17 -9 37 -32 48 -58 11 -23 31 -53 46 -66 86 -80 -58 -104
-168 -28 -27 19 -28 23 -21 71 7 57 28 96 51 96 8 0 28 -7 44 -15z m-3448 -77
c-7 -7 -12 -8 -12 -2 0 14 12 26 19 19 2 -3 -1 -11 -7 -17z m-458 -186 c26
-39 34 -72 16 -72 -5 0 -10 4 -10 10 0 5 -11 12 -25 16 -27 7 -31 14 -14 31
12 12 4 33 -12 33 -5 0 -9 -7 -9 -15 0 -8 -4 -15 -10 -15 -11 0 -14 33 -3 43
16 17 42 4 67 -31z m462 -57 c21 -31 74 -65 105 -65 20 -1 21 -2 7 -10 -10 -6
-15 -21 -14 -40 1 -19 -6 -39 -21 -56 -13 -15 -23 -34 -23 -42 0 -20 -29 -52
-47 -52 -7 0 -13 -4 -13 -10 0 -5 5 -10 11 -10 5 0 9 -8 7 -17 -1 -10 1 -24 5
-30 5 -7 4 -13 -1 -13 -16 0 -1 -39 20 -54 17 -12 18 -15 3 -30 -12 -11 -13
-21 -6 -33 7 -13 2 -28 -22 -60 -17 -24 -37 -43 -44 -43 -9 0 -13 -7 -11 -17
5 -24 36 -18 59 10 9 12 21 18 25 14 5 -4 2 -12 -6 -17 -10 -7 -11 -10 -2 -10
14 0 17 -46 3 -55 -5 -3 -17 5 -25 17 -9 12 -16 18 -16 13 0 -6 -23 -9 -54 -7
-71 5 -92 25 -80 79 11 51 11 75 1 96 -11 25 -39 57 -49 57 -13 0 -9 -28 5
-33 8 -3 3 -13 -14 -30 -35 -34 -55 -18 -32 26 15 30 15 32 -14 57 -16 15 -28
31 -26 36 5 15 -74 86 -82 74 -4 -6 -21 -8 -40 -4 -22 4 -41 1 -57 -10 -23
-15 -27 -14 -66 11 -45 29 -51 43 -27 63 8 7 12 16 9 21 -8 14 -41 11 -47 -4
-6 -17 -75 -59 -81 -49 -2 4 -1 30 1 58 4 42 10 54 29 63 24 11 64 -2 64 -21
0 -5 11 -8 24 -8 14 0 28 -4 31 -10 11 -18 31 -11 43 15 14 30 32 32 39 5 7
-27 25 -25 23 3 -4 48 0 57 25 57 16 0 25 -6 25 -15 0 -8 -6 -15 -14 -15 -23
0 -26 -15 -8 -41 l16 -23 6 24 c5 20 12 25 43 25 20 1 39 4 43 7 9 10 35 -3
28 -13 -6 -10 29 -12 39 -2 4 3 0 14 -8 23 -13 15 -14 19 -1 29 8 6 18 11 22
10 27 -5 34 2 24 21 -8 16 -8 18 4 14 8 -3 17 -12 20 -19 7 -20 69 -29 96 -15
18 10 21 17 15 46 -7 41 7 45 31 9z m3275 -125 c23 -13 25 -33 5 -49 -12 -10
-18 -7 -31 13 -9 14 -14 30 -10 36 8 13 12 13 36 0z m-4155 -207 c-12 -51 -11
-58 7 -57 21 2 21 -3 2 -22 -9 -9 -23 -13 -34 -9 -26 8 -35 84 -13 103 28 22
45 15 38 -15z m152 -86 c2 -20 12 -32 31 -40 29 -13 31 -39 4 -69 -20 -23 -44
-10 -72 38 -19 31 -20 41 -10 71 13 42 42 42 47 0z m-108 -7 c0 -5 -2 -10 -4
-10 -3 0 -8 5 -11 10 -3 6 -1 10 4 10 6 0 11 -4 11 -10z m590 -54 c0 -21 21
-31 31 -15 7 11 9 11 9 -3 0 -22 -40 -35 -51 -17 -12 19 -11 49 1 49 6 0 10
-6 10 -14z m-280 0 c0 -3 -4 -8 -10 -11 -5 -3 -10 -1 -10 4 0 6 5 11 10 11 6
0 10 -2 10 -4z m-456 -52 c3 -8 2 -12 -4 -9 -6 3 -10 1 -10 -6 0 -7 -2 -10 -5
-7 -5 5 4 38 10 38 2 0 6 -7 9 -16z m-464 -77 c8 -7 20 -22 26 -33 10 -17 9
-23 -7 -32 -17 -11 -23 -8 -44 15 -13 16 -25 36 -25 46 0 20 28 22 50 4z m548
-32 c-3 -3 -9 2 -12 12 -6 14 -5 15 5 6 7 -7 10 -15 7 -18z m1015 -117 c6 -73
10 -86 32 -103 24 -20 34 -45 17 -45 -4 0 -15 9 -25 20 -20 24 -47 26 -47 5 0
-17 -43 -37 -62 -29 -23 9 -50 55 -55 94 -5 35 -2 42 36 79 22 22 41 45 41 50
0 9 38 20 51 14 3 -1 9 -40 12 -85z m108 -91 c-7 -7 -15 -6 -25 3 -22 17 -9
32 16 19 14 -8 17 -14 9 -22z m-409 -17 c-5 -46 -5 -55 2 -72 9 -21 -36 -53
-61 -44 -13 5 -14 9 -5 15 10 6 10 18 0 60 -13 59 -5 73 42 69 20 -3 24 -8 22
-28z m-323 -44 c13 -15 5 -93 -11 -102 -5 -3 -21 -3 -35 1 -22 5 -25 10 -19
36 6 29 35 78 47 79 4 0 12 -6 18 -14z m2531 -96 c0 -5 -2 -10 -4 -10 -3 0 -8
5 -11 10 -3 6 -1 10 4 10 6 0 11 -4 11 -10z m-2033 -24 c23 -20 26 -28 17 -43
-6 -9 -22 -20 -35 -23 -16 -4 -25 -14 -28 -30 -6 -49 -41 -43 -41 8 0 12 -5
31 -12 41 -14 22 1 47 37 61 30 13 31 12 62 -14z m-549 -33 c-2 -36 -7 -49
-20 -51 -15 -3 -18 4 -18 41 0 41 7 54 33 56 4 1 7 -20 5 -46z m-580 21 c15
-4 22 -14 22 -30 0 -27 -10 -30 -43 -11 -58 32 -45 58 21 41z m277 -148 c17
-19 41 -37 54 -41 l23 -7 -30 -18 c-16 -10 -33 -23 -36 -28 -3 -6 -20 -13 -36
-17 -17 -4 -30 -10 -30 -15 0 -19 -33 -40 -52 -34 -14 4 -18 2 -14 -5 13 -21
-12 -11 -41 17 -23 21 -32 42 -43 100 -17 91 -15 93 95 87 76 -4 81 -6 110
-39z m55 -6 c-8 -5 -19 -10 -25 -10 -5 0 -3 5 5 10 8 5 20 10 25 10 6 0 3 -5
-5 -10z m-253 -156 c6 -16 -15 -37 -29 -28 -4 3 -8 14 -8 25 0 23 28 26 37 3z
m4483 -234 c0 -5 -7 -10 -16 -10 -8 0 -12 5 -9 10 3 6 10 10 16 10 5 0 9 -4 9
-10z m-5008 -237 c25 -23 22 -51 -7 -65 -13 -6 -28 -23 -33 -37 -9 -23 -11
-24 -17 -8 -5 12 -1 32 9 53 9 19 16 44 16 54 0 24 8 25 32 3z m-1307 -83 c3
-5 1 -10 -4 -10 -6 0 -11 5 -11 10 0 6 2 10 4 10 3 0 8 -4 11 -10z m388 -63
c52 -19 59 -28 62 -81 3 -51 5 -50 -72 -46 -39 1 -62 -4 -87 -19 -41 -26 -46
-26 -46 -2 0 25 -38 71 -58 71 -9 0 -30 8 -45 19 l-28 18 47 7 c26 3 52 2 58
-3 20 -15 60 -20 73 -9 7 6 13 20 13 33 0 12 3 25 7 29 8 8 14 6 76 -17z
m-307 -44 c-1 -41 -16 -51 -40 -28 -18 18 -21 35 -7 35 5 0 11 9 14 20 9 34
34 13 33 -27z m-1094 2 c15 6 62 -41 49 -49 -8 -5 -101 49 -101 59 0 3 9 1 19
-5 11 -5 26 -8 33 -5z m1053 -71 c17 -17 14 -34 -13 -93 -12 -26 -13 -36 -4
-39 16 -5 6 -63 -18 -112 -9 -19 -15 -41 -13 -47 6 -17 -11 -39 -99 -122 l-78
-73 -21 48 c-11 27 -23 65 -26 84 -3 19 -11 41 -17 49 -15 19 -29 -36 -15 -62
15 -28 -1 -39 -40 -27 -24 6 -54 5 -103 -5 -98 -21 -112 -15 -115 43 -2 33 -8
52 -23 64 -23 18 -27 48 -6 48 7 0 34 -9 60 -21 26 -11 52 -18 59 -16 7 2 -2
7 -20 11 -17 4 -37 14 -44 22 -6 8 -17 14 -25 14 -20 0 -26 17 -11 32 28 27
49 68 43 83 -3 10 -19 15 -45 15 -31 0 -43 -5 -52 -22 -10 -19 -8 -25 16 -46
15 -13 24 -27 19 -32 -12 -10 -94 25 -94 41 0 9 3 9 14 0 11 -9 16 -9 22 0 4
7 0 17 -8 23 -13 9 -11 17 14 50 17 24 28 33 28 22 0 -18 11 -21 27 -5 7 7 21
6 47 -5 20 -8 43 -13 51 -10 9 4 15 0 15 -10 0 -9 -7 -16 -16 -16 -12 0 -11
-6 8 -30 16 -21 29 -28 45 -25 15 4 28 -3 42 -22 25 -31 39 -24 23 12 -19 41
-14 47 16 25 l28 -21 44 20 c25 12 56 32 69 46 24 26 41 32 41 15 0 -17 18
-11 24 8 3 9 19 25 36 34 17 9 30 25 30 36 0 10 3 22 7 25 12 13 62 7 78 -9z
m156 -29 c13 5 19 3 15 -3 -3 -5 -21 -12 -39 -14 -29 -3 -33 -1 -29 14 3 14 8
16 18 7 7 -6 23 -8 35 -4z m618 -21 c-14 -18 -24 -11 -15 11 3 9 11 13 16 10
8 -5 7 -11 -1 -21z m317 -19 c8 -7 14 -30 14 -50 0 -28 5 -38 24 -47 14 -6 33
-7 43 -3 10 5 37 10 60 11 31 2 43 -1 48 -14 3 -9 1 -18 -4 -20 -6 -2 -8 -8
-5 -13 3 -6 -5 -7 -21 -3 -17 4 -30 2 -35 -6 -4 -7 -29 -15 -55 -17 -36 -5
-49 -11 -57 -28 -15 -33 4 -61 47 -69 19 -4 35 -11 35 -16 0 -18 33 -41 51
-35 17 6 19 1 19 -36 0 -48 26 -79 85 -100 32 -12 34 -15 20 -29 -11 -10 -32
-14 -70 -13 -30 2 -67 3 -82 3 -34 1 -160 -16 -190 -25 -13 -4 -50 2 -89 15
-37 12 -78 19 -90 16 -17 -5 -26 -1 -34 14 -6 11 -19 20 -29 20 -23 0 -89 89
-97 129 -9 41 14 50 29 12 9 -24 17 -31 38 -31 19 0 31 -9 45 -35 19 -36 25
-40 38 -28 4 4 15 8 24 8 10 0 20 14 27 39 6 22 16 41 22 43 18 6 26 -16 12
-33 -15 -19 -6 -28 20 -19 33 10 26 54 -11 68 -10 3 -20 18 -24 32 -5 20 0 33
21 55 23 24 26 32 15 45 -7 8 -16 12 -22 9 -18 -11 -37 17 -32 46 4 15 1 31
-5 34 -19 12 -12 24 21 35 38 14 41 11 28 -24 -6 -17 -7 -32 -2 -37 13 -13 42
19 42 47 0 15 7 26 20 30 11 3 25 15 31 27 8 15 17 18 36 13 14 -3 32 -12 39
-20z m248 -41 c10 -27 7 -36 -14 -29 -11 4 -20 2 -20 -4 0 -17 -30 -13 -37 5
-4 11 1 22 12 30 25 19 51 18 59 -2z m-1135 -124 c41 -27 28 -100 -18 -100
-36 0 -71 26 -65 48 2 9 -1 7 -7 -5 -7 -13 -16 -23 -21 -23 -15 0 -21 31 -9
43 16 16 14 37 -3 31 -8 -3 -17 0 -21 6 -6 9 -9 9 -15 0 -4 -6 -7 2 -8 19 0
20 4 31 13 31 8 0 20 8 27 19 8 11 25 19 41 19 16 0 34 5 40 11 9 9 15 -1 25
-41 8 -29 17 -55 21 -58z m1391 46 c0 -40 -12 -52 -30 -31 -10 12 -10 21 -2
40 16 36 32 31 32 -9z m-2948 12 c9 -7 18 -30 20 -51 4 -33 1 -40 -18 -47 -23
-9 -34 -29 -34 -61 0 -29 -18 -31 -103 -11 l-76 18 18 28 c10 15 22 27 25 26
4 0 21 18 38 41 l30 42 20 -24 c11 -13 17 -17 15 -9 -4 14 29 60 43 60 3 0 13
-6 22 -12z m2859 -26 c9 -17 22 -38 28 -46 9 -11 7 -15 -9 -19 -12 -3 -20 -13
-20 -25 0 -28 -10 -52 -22 -52 -11 0 -47 40 -48 53 0 4 8 7 19 7 10 0 25 7 32
16 11 13 10 17 -4 25 -11 7 -17 22 -17 45 0 44 18 42 41 -4z m-144 -7 c1 -6
-8 -23 -21 -40 -24 -30 -24 -30 -45 -11 -22 20 -28 46 -10 46 5 0 8 4 5 8 -3
5 11 8 31 7 20 0 38 -5 40 -10z m-2616 -16 c15 -15 18 -23 9 -29 -6 -4 -11
-10 -11 -14 3 -20 -1 -26 -18 -26 -12 0 -20 9 -24 28 -3 15 -9 35 -12 45 -10
25 29 23 56 -4z m347 12 c21 -13 10 -47 -13 -43 -11 2 -34 3 -52 2 -36 -1 -50
14 -33 35 13 16 77 20 98 6z m-304 -47 c24 -9 20 -33 -4 -27 -11 3 -20 12 -20
19 0 16 2 16 24 8z m1956 -29 c0 -26 -14 -33 -25 -15 -9 14 1 40 15 40 5 0 10
-11 10 -25z m-730 -54 c0 -26 -17 -36 -36 -21 -11 10 -12 16 -3 26 17 20 39
17 39 -5z m255 9 c-3 -5 -11 -10 -16 -10 -6 0 -7 5 -4 10 3 6 11 10 16 10 6 0
7 -4 4 -10z m-2092 -35 c-7 -21 -13 -19 -13 6 0 11 4 18 10 14 5 -3 7 -12 3
-20z m2061 -24 c-7 -33 0 -39 64 -55 l46 -12 -21 -19 c-11 -11 -24 -35 -28
-53 -4 -18 -14 -36 -23 -39 -10 -4 -33 -16 -52 -29 -20 -12 -48 -21 -63 -21
-16 0 -38 -10 -50 -21 -12 -11 -41 -29 -64 -41 -23 -12 -47 -30 -53 -41 -8
-15 -21 -20 -53 -20 -53 0 -69 12 -95 73 -22 49 -21 50 15 47 28 -2 80 25 93
49 16 31 12 54 -15 83 -28 30 -34 78 -10 78 8 0 15 7 15 15 0 8 7 15 16 15 8
0 12 5 9 11 -4 6 2 5 14 -3 12 -7 24 -21 27 -30 6 -19 87 -54 102 -44 6 3 25
0 43 -8 19 -7 40 -11 47 -9 14 5 17 33 3 33 -5 0 -11 10 -15 23 -4 15 0 27 15
39 27 23 40 15 33 -21z m-1490 -8 c14 -19 17 -31 10 -48 -12 -31 -115 -117
-132 -110 -7 2 -24 -2 -37 -11 -28 -18 -65 -10 -65 14 0 25 49 62 82 62 16 0
31 6 34 14 3 8 17 17 30 20 30 8 29 33 -1 50 -11 6 -22 12 -24 13 -2 2 1 8 7
16 18 21 74 9 96 -20z m-704 7 c0 -5 -8 -10 -17 -10 -15 0 -16 2 -3 10 19 12
20 12 20 0z m2385 -10 c3 -5 -3 -10 -14 -10 -12 0 -21 5 -21 10 0 6 6 10 14
10 8 0 18 -4 21 -10z m-2516 -34 c9 -11 9 -16 -1 -22 -7 -4 -10 -4 -6 1 4 4 3
14 -3 22 -6 7 -9 13 -6 13 2 0 10 -6 16 -14z m182 4 c1 -5 2 -16 3 -22 0 -7 7
-13 14 -12 6 1 21 2 32 3 11 0 20 8 20 16 0 22 41 0 47 -25 3 -11 11 -16 19
-13 10 3 14 -3 14 -20 0 -31 -23 -51 -52 -44 -28 8 -68 -27 -68 -60 0 -13 9
-31 19 -40 18 -15 19 -19 5 -45 -8 -15 -18 -28 -22 -28 -17 0 -32 25 -32 53 0
16 -11 42 -25 59 -18 21 -25 41 -25 71 0 23 -3 52 -6 65 -5 18 -2 22 16 22 16
0 20 4 16 15 -3 9 0 15 9 15 8 0 16 -4 16 -10z m414 -20 c14 -26 14 -31 1 -36
-16 -6 -56 12 -56 26 0 20 13 40 26 40 7 0 21 -14 29 -30z m-538 -6 c-3 -3
-12 -4 -19 -1 -8 3 -5 6 6 6 11 1 17 -2 13 -5z m-50 -46 c-3 -7 -5 -2 -5 12 0
14 2 19 5 13 2 -7 2 -19 0 -25z m43 17 c-6 -8 -10 -22 -7 -32 4 -14 5 -13 6 5
0 12 6 22 11 22 13 0 13 -6 0 -31 -15 -27 -27 -24 -32 11 -3 21 0 30 11 33 9
3 18 5 20 6 2 0 -2 -6 -9 -14z m-34 -61 c-4 -9 -9 -15 -11 -12 -3 3 -3 13 1
22 4 9 9 15 11 12 3 -3 3 -13 -1 -22z m656 -45 c-18 -17 -29 -35 -26 -40 11
-19 -21 -3 -38 18 -21 24 -22 33 -7 33 5 0 8 -4 5 -9 -3 -5 0 -14 7 -20 11 -8
22 -4 47 19 44 39 53 39 12 -1z m2588 13 c0 -11 -22 -32 -32 -32 -5 0 -4 9 2
20 11 20 30 28 30 12z m-2700 -12 c0 -5 -5 -10 -11 -10 -5 0 -7 5 -4 10 3 6 8
10 11 10 2 0 4 -4 4 -10z m-10 -30 c0 -5 12 -10 28 -10 15 0 35 -6 44 -14 16
-11 16 -15 2 -34 -8 -13 -20 -20 -25 -17 -5 3 -6 -1 -2 -11 5 -13 2 -15 -18
-9 -13 4 -36 15 -51 24 -25 15 -26 17 -13 49 13 30 35 44 35 22z m719 -54 c52
-32 -77 -145 -167 -146 -25 0 -44 10 -78 42 -50 47 -54 68 -21 95 20 15 41 18
139 17 63 -1 120 -4 127 -8z m411 -1 c7 -8 22 -14 34 -13 11 0 34 -4 49 -11
16 -6 41 -11 57 -11 16 0 32 -4 35 -10 4 -6 -10 -10 -34 -10 -23 0 -41 -4 -41
-9 0 -4 -16 -11 -36 -14 -20 -4 -47 -16 -60 -28 -21 -20 -51 -19 -38 2 3 6 -3
13 -15 16 -12 3 -21 6 -21 8 0 9 25 73 33 83 12 16 22 15 37 -3z m-11150 -15
c0 -5 -2 -10 -4 -10 -3 0 -8 5 -11 10 -3 6 -1 10 4 10 6 0 11 -4 11 -10z
m8298 -28 c2 -7 -3 -12 -12 -12 -9 0 -16 7 -16 16 0 17 22 14 28 -4z m6537 8
c3 -5 -1 -10 -10 -10 -9 0 -13 5 -10 10 3 6 8 10 10 10 2 0 7 -4 10 -10z
m-14768 -32 c-3 -8 -6 -5 -6 6 -1 11 2 17 5 13 3 -3 4 -12 1 -19z m107 -19
c-27 -30 -38 -22 -12 9 13 16 25 25 27 20 1 -5 -5 -18 -15 -29z m11226 4 c24
-21 25 -29 5 -37 -25 -9 -45 4 -45 30 0 28 12 30 40 7z m-9573 -18 c0 -8 -4
-12 -9 -9 -5 3 -6 10 -3 15 9 13 12 11 12 -6z m7073 1 c0 -2 -7 -7 -16 -10 -8
-3 -12 -2 -9 4 6 10 25 14 25 6z m1044 -78 c-7 -48 -19 -68 -40 -68 -22 0 -18
66 6 90 31 31 41 25 34 -22z m-1715 11 c38 -13 36 -29 -4 -42 -24 -8 -31 -6
-47 13 -30 37 -9 50 51 29z m2895 -33 c-3 -14 -12 -26 -20 -26 -17 0 -18 24
-3 52 15 27 32 9 23 -26z m174 -26 c-29 -27 -56 -50 -59 -50 -4 0 -16 -14 -27
-31 -11 -18 -22 -27 -26 -21 -3 6 5 28 19 49 37 56 46 65 61 59 9 -4 18 4 24
19 7 18 17 25 35 25 24 0 22 -3 -27 -50z m-11045 -120 c-3 -10 -16 -26 -29
-35 -24 -15 -33 -45 -14 -45 6 0 10 -4 10 -10 0 -5 -7 -10 -15 -10 -8 0 -15
-5 -15 -11 0 -5 -4 -8 -9 -4 -6 3 -9 -4 -8 -15 2 -25 6 -25 23 -2 7 9 14 12
14 5 0 -6 -8 -18 -18 -25 -10 -7 -25 -26 -33 -43 -12 -25 -20 -30 -52 -31 -20
0 -37 3 -37 7 0 4 -3 15 -7 25 -4 11 -3 15 4 11 11 -7 28 22 18 31 -3 3 -5 0
-5 -6 0 -21 -29 -13 -46 13 -9 14 -22 25 -29 25 -7 0 -18 7 -25 15 -10 12 -6
18 22 35 42 26 58 25 58 -1 0 -17 5 -20 23 -16 87 21 163 67 153 94 -3 7 1 13
8 13 9 0 12 -7 9 -20z m10653 -59 c-6 -10 -66 -1 -66 9 0 13 33 18 53 8 10 -5
15 -13 13 -17z m-8811 -11 c3 -5 1 -10 -4 -10 -6 0 -11 5 -11 10 0 6 2 10 4
10 3 0 8 -4 11 -10z m5395 -30 c26 -14 36 -67 16 -89 -9 -10 -16 -23 -16 -29
0 -13 -22 -15 -57 -6 -20 6 -20 7 -5 35 16 28 16 31 0 43 -45 33 10 74 62 46z
m-5176 -24 c36 -12 40 -17 42 -50 1 -26 -2 -34 -10 -27 -6 4 -32 11 -57 15
-26 4 -55 13 -65 20 -17 13 -16 15 16 35 19 11 35 21 35 21 0 0 18 -6 39 -14z
m5298 -79 c-12 -6 -25 -7 -29 -3 -11 10 18 25 35 18 13 -4 11 -8 -6 -15z
m-5229 -68 c22 -25 30 -29 41 -20 21 17 49 -24 35 -51 -6 -12 -6 -18 1 -18 5
0 10 -4 10 -10 0 -13 -30 -1 -56 22 -13 12 -28 16 -39 12 -22 -9 -45 19 -45
56 0 49 15 51 53 9z m637 9 c0 -6 -6 -6 -14 1 -11 9 -16 9 -22 0 -4 -7 -3 -14
4 -17 11 -3 5 -32 -7 -32 -9 0 -8 42 2 57 9 14 37 6 37 -9z m1030 -8 c0 -5 -2
-10 -4 -10 -3 0 -8 5 -11 10 -3 6 -1 10 4 10 6 0 11 -4 11 -10z m-1080 -54 c0
-3 -4 -8 -10 -11 -5 -3 -10 -1 -10 4 0 6 5 11 10 11 6 0 10 -2 10 -4z m-150
-51 c-13 -14 -25 -23 -27 -21 -3 2 6 16 18 30 12 14 25 24 27 21 3 -3 -5 -16
-18 -30z m15176 0 c-10 -8 -15 -18 -11 -24 3 -7 0 -8 -9 -5 -22 9 -20 25 4 31
11 3 20 9 20 14 0 5 -11 4 -25 -1 -14 -5 -27 -6 -30 0 -7 11 47 18 60 7 6 -5
3 -13 -9 -22z m14 -149 c13 -13 13 -26 0 -26 -20 0 -50 65 -49 105 l0 40 20
-55 c10 -30 24 -59 29 -64z m-14040 -142 c0 -8 -9 -14 -20 -14 -19 0 -27 19
-14 33 10 9 34 -4 34 -19z m-260 -24 c0 -13 -28 -25 -38 -16 -3 4 0 11 8 16
20 13 30 12 30 0z m2645 -45 c0 -23 -30 -32 -50 -15 -27 22 -18 42 18 38 24
-2 32 -8 32 -23z m-1725 -25 c0 -5 -1 -11 -2 -12 -1 -2 4 -13 10 -24 14 -26 5
-37 -19 -23 -11 5 -19 6 -19 1 0 -4 -16 -6 -35 -4 -37 4 -41 12 -24 44 8 14
17 18 34 14 13 -3 27 -2 30 4 8 13 25 13 25 0z m452 -18 c-12 -2 -20 -7 -17
-12 3 -5 1 -11 -5 -15 -6 -3 -10 4 -10 18 0 21 3 23 28 18 25 -5 25 -6 4 -9z
m-1091 -15 c-8 -11 -7 -20 9 -40 11 -14 20 -37 20 -51 0 -31 -40 -60 -75 -54
-15 3 -26 0 -29 -9 -3 -8 -13 -13 -23 -11 -19 4 -26 37 -12 55 6 7 8 17 4 22
-3 6 6 20 20 33 14 12 25 28 25 35 0 7 15 19 33 27 36 15 45 13 28 -7z m2529
-3 c0 -8 -4 -12 -10 -9 -5 3 -10 10 -10 16 0 5 5 9 10 9 6 0 10 -7 10 -16z
m-4 -51 c-4 -4 -11 -1 -16 7 -16 25 -11 35 7 17 9 -9 13 -20 9 -24z m-2776 17
c0 -5 7 -10 15 -10 8 0 15 -7 15 -16 0 -10 -5 -14 -16 -10 -9 4 -13 2 -8 -5 4
-7 1 -10 -7 -7 -17 5 -25 58 -10 58 6 0 11 -4 11 -10z m565 -58 c-8 -23 14
-52 40 -52 21 0 25 5 25 30 0 28 3 30 35 30 52 0 109 -26 101 -46 -3 -8 -6
-20 -6 -25 0 -5 -9 -9 -19 -9 -28 0 -35 -17 -12 -30 34 -18 45 -49 26 -70 -13
-15 -14 -23 -5 -39 6 -12 8 -21 4 -21 -3 0 -1 -7 6 -14 8 -10 8 -21 2 -32 -8
-15 -10 -15 -23 1 -8 9 -24 28 -36 41 -19 20 -20 26 -8 30 22 9 18 34 -4 34
-11 0 -23 5 -26 10 -9 15 -45 12 -45 -3 0 -7 5 -18 12 -25 9 -9 9 -12 -1 -12
-21 0 -68 -38 -74 -61 -3 -13 2 -28 14 -40 48 -48 -3 -25 -62 28 -36 33 -54
64 -27 47 7 -4 8 -3 4 4 -15 24 5 32 35 15 21 -13 32 -14 40 -6 17 17 1 50
-27 57 -20 5 -25 12 -21 28 4 14 0 22 -14 25 -11 3 -18 10 -16 16 6 18 34 30
53 23 14 -5 15 -9 5 -15 -11 -7 -10 -14 5 -37 l19 -28 3 47 c2 35 -2 57 -18
82 l-21 34 21 -2 c13 -1 19 -6 15 -15z m575 -138 c0 -16 -35 -19 -45 -5 -6 11
26 32 37 25 5 -3 8 -12 8 -20z m-1422 -42 c2 -12 -4 -29 -13 -38 -13 -14 -18
-14 -32 -2 -14 12 -13 14 11 18 25 5 26 6 11 25 -12 16 -14 17 -9 3 3 -10 1
-18 -5 -18 -6 0 -11 9 -11 21 0 30 44 22 48 -9z m1492 -1 c0 -5 -9 -7 -20 -4
-11 3 -20 7 -20 9 0 2 9 4 20 4 11 0 20 -4 20 -9z m-55 -11 c-3 -5 -11 -10
-16 -10 -6 0 -7 5 -4 10 3 6 11 10 16 10 6 0 7 -4 4 -10z m-5887 -1151 c25
-19 27 -19 39 -3 23 32 35 3 27 -65 -8 -69 -21 -82 -22 -20 -1 47 -11 62 -52
79 -17 7 -30 16 -30 21 0 14 10 11 38 -12z m-70 -22 c0 -17 -9 -27 -30 -35
-27 -10 -28 -9 -22 11 9 30 14 34 23 18 7 -10 10 -9 16 8 8 27 13 27 13 -2z
m86 -33 c9 -3 16 -12 16 -20 0 -20 -13 -17 -28 6 -13 22 -12 23 12 14z m115
-118 c15 -18 3 -76 -16 -76 -8 0 -11 4 -8 10 3 5 -1 20 -9 32 -9 12 -16 28
-16 35 0 17 35 17 49 -1z m411 -250 c0 -3 -4 -8 -10 -11 -5 -3 -10 -1 -10 4 0
6 5 11 10 11 6 0 10 -2 10 -4z m-567 -756 c3 -11 1 -18 -4 -14 -5 3 -9 12 -9
20 0 20 7 17 13 -6z m-32 -36 c-9 -28 -9 -29 -10 -3 -1 14 2 29 6 32 11 12 13
2 4 -29z m86 -6 c-3 -8 -6 -5 -6 6 -1 11 2 17 5 13 3 -3 4 -12 1 -19z m183
-13 c0 -8 -4 -15 -10 -15 -5 0 -10 -10 -10 -22 0 -15 -3 -19 -10 -12 -7 7 -6
19 2 37 14 29 28 36 28 12z m-100 -5 c0 -5 -2 -10 -4 -10 -3 0 -8 5 -11 10 -3
6 -1 10 4 10 6 0 11 -4 11 -10z m-55 -10 c3 -5 1 -10 -4 -10 -6 0 -11 5 -11
10 0 6 2 10 4 10 3 0 8 -4 11 -10z m102 4 c-3 -3 -12 -4 -19 -1 -8 3 -5 6 6 6
11 1 17 -2 13 -5z m-27 -24 c0 -5 -7 -7 -15 -4 -8 4 -15 8 -15 10 0 2 7 4 15
4 8 0 15 -4 15 -10z m-223 -16 c-3 -3 -12 -4 -19 -1 -8 3 -5 6 6 6 11 1 17 -2
13 -5z m148 -14 c3 -5 1 -10 -4 -10 -6 0 -11 5 -11 10 0 6 2 10 4 10 3 0 8 -4
11 -10z m3815 -10 c0 -5 -2 -10 -4 -10 -3 0 -8 5 -11 10 -3 6 -1 10 4 10 6 0
11 -4 11 -10z m-3843 -32 c-3 -8 -6 -5 -6 6 -1 11 2 17 5 13 3 -3 4 -12 1 -19z
m43 7 c-7 -9 -15 -13 -17 -11 -7 7 7 26 19 26 6 0 6 -6 -2 -15z m-80 -35 c0
-5 -7 -7 -15 -4 -8 4 -15 8 -15 10 0 2 7 4 15 4 8 0 15 -4 15 -10z m130 6 c0
-2 -7 -7 -16 -10 -8 -3 -12 -2 -9 4 6 10 25 14 25 6z m35 -94 c-3 -3 -11 0
-18 7 -9 10 -8 11 6 5 10 -3 15 -9 12 -12z"
/>
<path d="M15473 7009 c-25 -9 -29 -29 -12 -60 10 -19 8 -20 -24 -14 -40 8 -53
-5 -37 -36 8 -15 18 -19 33 -15 11 3 27 1 33 -5 9 -7 20 -6 37 6 22 14 24 21
20 63 -6 57 -20 73 -50 61z"/>
<path d="M15066 6884 c-10 -26 -7 -34 13 -34 17 0 31 18 31 41 0 16 -38 10
-44 -7z"/>
<path d="M15284 6799 c-10 -17 23 -46 37 -32 7 7 9 19 6 27 -7 18 -33 21 -43
5z"/>
<path d="M14578 5813 c-19 -5 -25 -38 -9 -47 14 -9 55 29 47 42 -7 12 -9 13
-38 5z"/>
<path d="M13051 5056 c-9 -10 -9 -16 -1 -21 16 -10 31 7 21 23 -6 10 -10 10
-20 -2z"/>
<path d="M12337 4784 c-8 -8 3 -34 14 -34 5 0 9 9 9 20 0 19 -11 26 -23 14z"/>
<path d="M13662 4798 c-18 -18 -15 -30 5 -19 10 5 26 5 40 0 17 -6 23 -5 23 5
0 8 -10 16 -22 20 -31 8 -32 8 -46 -6z"/>
<path d="M13694 4701 c3 -5 -2 -8 -11 -7 -9 0 -18 -5 -20 -12 -5 -13 22 -12
45 1 13 9 7 27 -9 27 -6 0 -8 -4 -5 -9z"/>
<path d="M13690 4610 c-8 -5 -12 -11 -9 -14 2 -3 11 -1 19 4 8 5 12 11 9 14
-2 3 -11 1 -19 -4z"/>
<path d="M14020 4800 c0 -5 5 -10 10 -10 6 0 10 5 10 10 0 6 -4 10 -10 10 -5
0 -10 -4 -10 -10z"/>
<path d="M18727 8184 c-4 -4 -7 -17 -7 -29 0 -31 -24 -50 -42 -33 -44 40 -82
48 -98 18 -6 -11 -18 -20 -26 -20 -11 0 -14 -5 -10 -17 4 -9 1 -20 -6 -25 -10
-6 -6 -15 15 -33 50 -44 122 -29 152 33 14 28 20 32 22 20 9 -40 92 -34 119 7
15 24 15 27 0 44 -10 11 -33 22 -52 26 -20 3 -41 8 -48 11 -7 2 -15 1 -19 -2z"/>
<path d="M18850 8174 c0 -14 8 -16 52 -11 78 10 85 27 10 27 -51 0 -62 -3 -62
-16z"/>
<path d="M18034 7925 c-12 -29 4 -46 40 -43 26 1 33 6 29 17 -13 36 -59 54
-69 26z"/>
<path d="M18508 7868 c-22 -7 -28 -16 -28 -38 0 -32 14 -40 71 -40 38 0 39 1
39 35 0 24 -6 37 -19 45 -23 12 -27 12 -63 -2z"/>
<path d="M17189 7703 c-6 -15 -12 -46 -13 -68 -1 -36 1 -40 24 -40 24 0 25 2
25 64 0 71 -17 92 -36 44z"/>
<path d="M11892 7528 c3 -26 -1 -33 -22 -40 -22 -7 -21 -7 7 -3 23 3 38 -2 56
-19 l24 -23 -1 26 c-2 33 -36 91 -53 91 -9 0 -12 -11 -11 -32z m53 -38 c8 -13
-5 -13 -25 0 -13 8 -13 10 2 10 9 0 20 -4 23 -10z"/>
<path d="M11844 7356 c-31 -24 -7 -50 50 -54 51 -3 58 7 30 46 -17 25 -51 29
-80 8z"/>
<path d="M14589 7324 c-10 -13 -10 -17 2 -25 8 -5 20 -9 27 -9 19 0 27 31 11
41 -19 12 -25 11 -40 -7z"/>
<path d="M14640 7171 c0 -5 6 -14 14 -20 11 -9 16 -9 21 0 4 6 1 15 -6 20 -18
11 -29 11 -29 0z"/>
<path d="M14267 7144 c-9 -10 2 -24 19 -24 8 0 14 7 14 15 0 15 -21 21 -33 9z"/>
<path d="M14467 7053 c-25 -25 21 -85 51 -67 22 14 27 41 12 59 -13 15 -51 20
-63 8z"/>
<path d="M13790 7001 c-48 -15 -128 -60 -134 -76 -15 -40 -5 -63 40 -101 30
-24 43 -30 36 -17 -6 11 -18 25 -26 33 -23 18 -20 66 5 89 27 25 76 49 111 53
27 4 51 18 30 18 -5 0 -16 2 -24 4 -7 2 -24 1 -38 -3z"/>
<path d="M13750 6768 c0 -4 16 -37 36 -72 41 -75 43 -119 7 -124 -18 -3 -23
-10 -23 -33 0 -30 -13 -59 -42 -92 -9 -10 -19 -36 -22 -58 -19 -127 -20 -118
5 -128 31 -11 152 -20 142 -10 -5 4 -34 9 -66 10 -32 1 -65 8 -74 14 -15 11
-14 17 3 65 19 54 64 110 89 110 7 0 21 -26 31 -57 15 -46 24 -59 42 -61 21
-3 23 -1 17 20 -4 13 -21 49 -36 80 -35 69 -38 123 -8 154 22 24 19 44 -8 44
-15 0 -15 12 2 52 5 13 -1 20 -28 31 -19 8 -42 25 -51 38 -9 13 -16 20 -16 17z"/>
<path d="M13925 6730 c3 -5 8 -10 11 -10 2 0 4 5 4 10 0 6 -5 10 -11 10 -5 0
-7 -4 -4 -10z"/>
<path d="M19045 6520 c-3 -6 1 -7 9 -4 18 7 21 14 7 14 -6 0 -13 -4 -16 -10z"/>
<path d="M13865 6510 c-3 -5 -1 -10 4 -10 6 0 11 5 11 10 0 6 -2 10 -4 10 -3
0 -8 -4 -11 -10z"/>
<path d="M13955 6470 c-3 -5 -1 -10 4 -10 6 0 11 5 11 10 0 6 -2 10 -4 10 -3
0 -8 -4 -11 -10z"/>
<path d="M7101 6403 c0 -11 3 -13 6 -5 2 6 9 12 15 12 6 0 8 -6 5 -14 -4 -9 3
-16 16 -20 29 -7 30 -3 7 22 -25 26 -50 29 -49 5z"/>
<path d="M13928 6394 c-13 -13 -14 -22 -6 -45 10 -28 31 -38 42 -21 7 11 -5
82 -13 82 -4 0 -14 -7 -23 -16z"/>
<path d="M12515 6301 c-8 -14 11 -23 42 -19 16 2 28 -2 31 -11 3 -9 0 -11 -8
-6 -9 5 -11 4 -6 -3 13 -22 25 -12 24 19 -1 20 -4 26 -9 17 -7 -10 -9 -10 -9
0 0 14 -56 17 -65 3z"/>
<path d="M12271 6175 c-87 -27 -157 -136 -132 -206 12 -34 46 -81 53 -73 3 3
8 -2 12 -11 4 -11 2 -14 -6 -9 -7 4 -2 -7 11 -24 12 -18 27 -30 32 -27 5 4 9
1 9 -5 0 -5 26 -22 57 -35 53 -24 61 -25 111 -13 65 14 142 69 142 101 0 12 7
35 15 51 22 41 19 124 -5 161 -11 17 -48 47 -82 68 -52 31 -70 37 -117 36 -31
0 -76 -6 -100 -14z"/>
<path d="M19187 6173 c-4 -3 -7 -17 -7 -30 0 -12 -9 -31 -19 -40 -10 -10 -31
-29 -46 -43 -15 -13 -38 -39 -52 -56 -50 -66 -8 -127 98 -141 l39 -6 0 162 c0
88 -1 161 -3 161 -2 0 -7 -3 -10 -7z"/>
<path d="M13455 6120 c-3 -5 1 -10 9 -10 9 0 16 5 16 10 0 6 -4 10 -9 10 -6 0
-13 -4 -16 -10z"/>
<path d="M13960 6090 c-8 -5 -24 -10 -36 -10 -11 0 -28 -6 -37 -13 -15 -10
-16 -15 -4 -31 12 -17 16 -17 43 -3 17 9 36 23 43 31 17 20 11 38 -9 26z"/>
<path d="M13021 5940 c-28 -22 -51 -45 -51 -51 0 -17 31 -71 38 -65 3 4 0 12
-6 18 -29 29 7 83 79 117 39 18 41 20 17 21 -16 0 -46 -16 -77 -40z"/>
<path d="M12830 5890 c0 -5 5 -10 10 -10 6 0 10 5 10 10 0 6 -4 10 -10 10 -5
0 -10 -4 -10 -10z"/>
<path d="M14233 5893 c-18 -7 -16 -33 1 -33 27 0 45 12 39 26 -5 14 -18 17
-40 7z"/>
<path d="M12560 5830 c0 -5 5 -10 10 -10 6 0 10 5 10 10 0 6 -4 10 -10 10 -5
0 -10 -4 -10 -10z"/>
<path d="M14340 5831 c0 -11 39 -25 47 -18 3 3 2 10 -2 16 -8 13 -45 15 -45 2z"/>
<path d="M12479 5778 c-5 -18 -6 -38 -1 -34 7 8 12 36 6 36 -2 0 -4 -1 -5 -2z"/>
<path d="M14232 5755 c-14 -29 2 -34 18 -6 12 24 13 31 2 31 -5 0 -14 -11 -20
-25z"/>
<path d="M13850 5745 c-20 -24 -6 -28 15 -5 10 11 13 20 8 20 -6 0 -16 -7 -23
-15z"/>
<path d="M12991 5664 c0 -11 3 -14 6 -6 3 7 2 16 -1 19 -3 4 -6 -2 -5 -13z"/>
<path d="M12795 5654 c-89 -22 -110 -70 -66 -149 14 -24 26 -31 67 -38 103
-17 132 -8 159 49 19 41 15 67 -17 107 -30 37 -80 48 -143 31z"/>
<path d="M11510 5636 c0 -2 7 -7 16 -10 8 -3 12 -2 9 4 -6 10 -25 14 -25 6z"/>
<path d="M12190 5600 c0 -5 5 -10 10 -10 6 0 10 5 10 10 0 6 -4 10 -10 10 -5
0 -10 -4 -10 -10z"/>
<path d="M8267 5593 c-24 -23 9 -31 39 -8 18 14 18 14 -7 15 -14 0 -29 -3 -32
-7z"/>
<path d="M12385 5551 c-18 -7 -18 -8 4 -27 12 -10 29 -31 36 -45 10 -18 25
-28 47 -31 18 -3 42 -9 53 -13 18 -8 19 -7 6 9 -11 13 -11 20 -3 28 18 18 14
53 -6 71 -20 18 -100 22 -137 8z"/>
<path d="M12570 5541 c0 -11 26 -22 34 -14 3 3 3 10 0 14 -7 12 -34 11 -34 0z"/>
<path d="M12030 5400 c-17 -6 -7 -7 34 -4 63 5 113 -8 118 -32 2 -9 7 -5 14
10 10 21 9 24 -10 24 -12 1 -46 3 -76 6 -30 3 -66 1 -80 -4z"/>
<path d="M12228 5383 c7 -3 16 -2 19 1 4 3 -2 6 -13 5 -11 0 -14 -3 -6 -6z"/>
<path d="M12308 5383 c7 -3 16 -2 19 1 4 3 -2 6 -13 5 -11 0 -14 -3 -6 -6z"/>
<path d="M11870 5360 c-8 -5 -24 -10 -35 -10 -11 0 -29 -8 -40 -17 l-20 -16
20 8 c11 4 39 12 63 18 23 6 42 14 42 19 0 11 -11 10 -30 -2z"/>
<path d="M11960 5360 c0 -5 7 -10 16 -10 8 0 12 5 9 10 -3 6 -10 10 -16 10 -5
0 -9 -4 -9 -10z"/>
<path d="M12060 5336 c-19 -24 -5 -48 27 -44 20 2 29 9 31 26 2 12 -1 22 -6
22 -6 0 -17 2 -25 5 -7 3 -20 -1 -27 -9z"/>
<path d="M13037 5312 c-11 -2 -17 -11 -15 -20 4 -22 52 -23 56 -1 3 18 -14 27
-41 21z m33 -17 c0 -7 -30 -13 -34 -7 -3 4 4 9 15 9 10 1 19 0 19 -2z"/>
<path d="M11715 5292 c-28 -24 -76 -82 -50 -61 11 9 30 20 42 23 12 4 25 16
28 27 9 28 3 31 -20 11z"/>
<path d="M11872 5301 c4 -13 18 -16 19 -4 0 4 -5 9 -11 12 -7 2 -11 -2 -8 -8z"/>
<path d="M11325 5160 c-10 -11 -16 -22 -13 -25 3 -3 13 6 22 20 20 30 16 32
-9 5z"/>
<path d="M10865 5162 c-23 -16 -46 -65 -43 -90 3 -26 6 -27 69 -30 58 -2 71 0
94 20 22 19 25 29 20 51 -4 16 -19 34 -36 42 -30 16 -87 20 -104 7z"/>
<path d="M12046 5094 c-8 -20 11 -44 34 -44 23 0 44 26 36 45 -8 21 -62 20
-70 -1z"/>
<path d="M10373 5039 c-9 -9 -7 -21 8 -48 10 -19 19 -41 19 -48 0 -28 85 -17
108 14 17 24 15 57 -6 76 -22 20 -112 23 -129 6z"/>
<path d="M10662 4853 c4 -22 43 -25 43 -3 0 8 -11 16 -23 18 -19 3 -23 0 -20
-15z"/>
<path d="M10697 4783 c-12 -11 -8 -23 8 -23 8 0 15 7 15 15 0 16 -12 20 -23 8z"/>
<path d="M984 4755 c-9 -24 10 -39 41 -31 18 5 25 12 23 24 -4 23 -56 29 -64
7z"/>
<path d="M10465 4720 c3 -5 8 -10 11 -10 2 0 4 5 4 10 0 6 -5 10 -11 10 -5 0
-7 -4 -4 -10z"/>
<path d="M8200 4710 c0 -5 -8 -7 -17 -3 -14 5 -13 1 4 -18 21 -22 24 -22 39
-7 9 9 13 21 10 27 -9 14 -36 15 -36 1z"/>
<path d="M10605 4680 c-3 -5 -1 -10 4 -10 6 0 11 5 11 10 0 6 -2 10 -4 10 -3
0 -8 -4 -11 -10z"/>
<path d="M1280 4625 c-19 -23 -7 -49 28 -59 28 -8 36 -6 57 14 29 27 32 45 9
54 -29 11 -81 6 -94 -9z"/>
<path d="M1627 4624 c-11 -11 5 -34 24 -34 12 0 19 7 19 20 0 19 -28 28 -43
14z"/>
<path d="M9414 4595 c-8 -20 4 -35 26 -35 28 0 36 21 15 37 -24 17 -34 17 -41
-2z"/>
<path d="M9502 4588 c-7 -7 -12 -26 -12 -43 0 -79 101 -89 126 -13 14 44 -80
90 -114 56z"/>
<path d="M1031 4548 c-13 -32 9 -54 38 -39 26 15 27 37 2 51 -27 14 -30 13
-40 -12z"/>
<path d="M130 4542 c0 -14 11 -21 26 -15 21 8 17 23 -6 23 -11 0 -20 -4 -20
-8z"/>
<path d="M9723 4476 c-47 -39 -126 -86 -146 -86 -27 0 -19 -45 8 -46 35 -2 68
-16 85 -36 9 -12 29 -20 50 -21 29 -2 36 2 38 19 2 11 -4 27 -13 34 -14 12
-13 14 6 24 52 26 49 78 -5 84 -32 4 -33 15 -3 35 12 9 19 16 15 16 -3 1 -19
-10 -35 -23z"/>
<path d="M1916 4475 c-20 -20 -20 -39 -1 -55 12 -10 16 -9 21 4 3 9 14 16 24
16 38 0 33 32 -6 44 -14 4 -28 1 -38 -9z"/>
<path d="M9972 4468 c3 -7 13 -15 22 -16 12 -3 17 1 14 10 -3 7 -13 15 -22 16
-12 3 -17 -1 -14 -10z"/>
<path d="M9465 4441 c-6 -11 9 -23 19 -14 9 9 7 23 -3 23 -6 0 -12 -4 -16 -9z"/>
<path d="M9593 4324 c0 -16 13 -19 21 -5 3 5 0 11 -7 14 -8 3 -14 -1 -14 -9z"/>
<path d="M792 4248 c4 -29 39 -35 62 -12 21 21 7 34 -37 34 -24 0 -28 -4 -25
-22z"/>
<path d="M1905 4260 c-3 -5 -1 -10 4 -10 6 0 11 5 11 10 0 6 -2 10 -4 10 -3 0
-8 -4 -11 -10z"/>
<path d="M7203 4236 c-18 -7 -46 -25 -63 -41 -72 -69 -1 -147 92 -99 17 9 42
17 55 19 30 3 63 33 63 56 0 20 -76 80 -99 78 -9 -1 -31 -7 -48 -13z"/>
<path d="M8458 4225 c-26 -57 60 -88 115 -40 15 13 27 27 27 30 0 11 -69 35
-100 35 -23 0 -33 -6 -42 -25z"/>
<path d="M8995 4240 c-3 -5 1 -10 9 -10 9 0 16 5 16 10 0 6 -4 10 -9 10 -6 0
-13 -4 -16 -10z"/>
<path d="M860 4160 c0 -5 5 -10 10 -10 6 0 10 5 10 10 0 6 -4 10 -10 10 -5 0
-10 -4 -10 -10z"/>
<path d="M6216 4083 c-11 -11 -6 -23 9 -23 8 0 15 4 15 9 0 13 -16 22 -24 14z"/>
<path d="M6037 4042 c-25 -27 -21 -42 11 -43 61 -3 69 2 54 36 -14 29 -42 32
-65 7z"/>
<path d="M7745 4041 c-9 -15 36 -51 64 -51 l25 0 -32 30 c-35 32 -47 36 -57
21z"/>
<path d="M8277 4033 c-4 -3 -7 -13 -7 -21 0 -10 7 -12 24 -8 15 4 28 0 36 -9
17 -21 40 -19 40 3 0 13 -12 22 -39 30 -45 14 -46 14 -54 5z"/>
<path d="M4340 3980 c14 -11 36 -20 50 -20 14 0 41 -10 60 -22 19 -12 42 -22
51 -23 10 -1 24 -9 34 -18 9 -9 26 -17 38 -17 22 0 21 1 -3 20 -14 10 -56 31
-95 45 -38 15 -85 33 -103 41 -46 20 -61 17 -32 -6z"/>
<path d="M7900 3987 c0 -8 7 -18 16 -21 11 -4 14 -1 12 11 -4 21 -28 30 -28
10z"/>
<path d="M3867 3948 c-7 -20 12 -48 32 -48 28 0 46 26 31 45 -15 18 -57 20
-63 3z"/>
<path d="M4830 3890 c-21 -13 -14 -14 140 -14 132 -1 137 -2 203 -34 37 -18
67 -37 67 -42 0 -11 63 -50 83 -50 11 0 15 9 14 33 -2 29 -6 33 -47 46 -25 7
-79 26 -120 41 -67 25 -89 28 -200 29 -69 0 -132 -4 -140 -9z"/>
<path d="M4676 3882 c-3 -5 1 -13 10 -16 25 -10 92 -7 99 4 3 6 -4 10 -18 10
-14 0 -38 3 -55 6 -16 3 -32 2 -36 -4z"/>
<path d="M5900 3880 c0 -5 5 -10 10 -10 6 0 10 5 10 10 0 6 -4 10 -10 10 -5 0
-10 -4 -10 -10z"/>
<path d="M5830 3871 c-44 -9 -60 -18 -60 -36 0 -9 15 -13 48 -13 55 -1 86 12
63 27 -7 5 -10 14 -7 20 8 12 8 12 -44 2z"/>
<path d="M8350 3861 c0 -5 9 -7 20 -4 11 3 20 7 20 9 0 2 -9 4 -20 4 -11 0
-20 -4 -20 -9z"/>
<path d="M5690 3830 c0 -5 12 -10 26 -10 14 0 23 4 19 10 -3 6 -15 10 -26 10
-10 0 -19 -4 -19 -10z"/>
<path d="M5505 3790 c-4 -6 8 -10 29 -10 19 0 38 5 41 10 4 6 -8 10 -29 10
-19 0 -38 -4 -41 -10z"/>
<path d="M4370 3766 c29 -18 60 -21 60 -6 0 6 -11 10 -24 10 -13 0 -33 3 -43
6 -10 3 -7 -2 7 -10z"/>
<path d="M5647 3756 c-3 -7 -20 -16 -38 -20 -39 -8 -59 -23 -59 -46 0 -27 -36
-53 -63 -46 -30 7 -53 -31 -31 -52 20 -18 34 -15 34 10 l0 21 23 -19 c12 -11
36 -21 52 -22 37 -3 75 16 69 33 -9 22 50 55 98 54 23 0 37 -3 31 -6 -7 -2
-13 -11 -13 -19 0 -7 -11 -21 -25 -30 -14 -9 -23 -20 -20 -24 2 -4 -9 -6 -26
-4 -32 4 -69 -10 -69 -26 0 -18 37 -20 70 -4 18 10 51 16 72 16 41 -2 108 25
91 37 -5 3 -10 17 -10 29 -3 34 -30 72 -52 72 -10 0 -30 9 -44 20 -14 11 -32
20 -40 20 -9 0 -19 5 -22 10 -9 14 -22 12 -28 -4z"/>
<path d="M7148 3731 c-25 -21 -19 -35 24 -57 28 -14 31 -14 44 3 35 45 -22 91
-68 54z"/>
<path d="M4920 3665 c-26 -31 12 -59 48 -36 12 7 12 12 1 30 -16 25 -32 27
-49 6z"/>
<path d="M6303 3664 c-9 -24 18 -44 45 -33 26 10 29 34 6 43 -26 10 -44 7 -51
-10z"/>
<path d="M6216 3633 c-56 -15 -60 -58 -7 -74 65 -19 98 8 67 56 -16 25 -24 27
-60 18z"/>
<path d="M7041 3604 c-12 -15 -21 -30 -21 -34 0 -10 52 -20 102 -20 28 0 46
-7 65 -26 42 -42 36 -21 -8 30 -38 43 -85 76 -108 76 -5 0 -19 -12 -30 -26z"/>
<path d="M4465 3529 c-4 -6 -4 -13 -1 -16 8 -8 36 5 36 17 0 13 -27 13 -35 -1z"/>
<path d="M5360 3520 c-9 -6 -10 -10 -3 -10 6 0 15 5 18 10 8 12 4 12 -15 0z"/>
<path d="M6597 3454 c-7 -8 33 -54 48 -54 6 0 20 6 30 14 18 13 17 14 -13 30
-32 17 -54 20 -65 10z"/>
<path d="M6740 3433 c-14 -3 -27 -8 -30 -12 -3 -4 -25 -22 -49 -39 -48 -35
-76 -40 -107 -17 -44 30 -124 -6 -124 -56 0 -19 65 -91 98 -108 12 -7 32 -9
43 -6 17 6 19 2 17 -27 -3 -30 0 -33 24 -33 15 0 33 -9 42 -20 20 -28 44 -6
29 27 -8 18 -5 26 16 44 21 19 24 26 15 41 -6 10 -24 23 -40 28 -15 6 -39 20
-51 31 l-24 22 43 37 c24 20 62 41 86 48 29 8 42 16 42 29 0 10 -1 17 -2 17
-2 -1 -14 -4 -28 -6z"/>
<path d="M7384 3425 c-8 -19 3 -35 25 -35 26 0 44 23 29 38 -17 17 -47 15 -54
-3z m51 -4 c3 -5 -4 -13 -16 -16 -23 -8 -34 -1 -24 14 8 13 32 14 40 2z"/>
<path d="M6240 3389 c0 -5 5 -7 10 -4 6 3 10 8 10 11 0 2 -4 4 -10 4 -5 0 -10
-5 -10 -11z"/>
<path d="M6291 3379 c-10 -18 -10 -23 0 -30 15 -9 44 25 34 41 -9 15 -19 12
-34 -11z"/>
<path d="M7325 3330 c-3 -5 1 -10 9 -10 9 0 16 5 16 10 0 6 -4 10 -9 10 -6 0
-13 -4 -16 -10z"/>
<path d="M6806 3231 c-3 -5 1 -11 9 -15 9 -3 15 0 15 9 0 16 -16 20 -24 6z"/>
</g>
</svg>
